<?xml version="1.0" encoding="UTF-8" standalone="no"?>
<!DOCTYPE svg PUBLIC "-//W3C//DTD SVG 1.1//EN"
 "http://www.w3.org/Graphics/SVG/1.1/DTD/svg11.dtd">
<!-- Generated by graphviz version 5.0.0 (20220707.1540)
 -->
<!-- Title: dependencies Pages: 1 -->
<svg width="1529pt" height="247pt"
 viewBox="0.00 0.00 1529.00 246.80" xmlns="http://www.w3.org/2000/svg" xmlns:xlink="http://www.w3.org/1999/xlink">
<g id="graph0" class="graph" transform="scale(1 1) rotate(0) translate(4 242.8)">
<title>dependencies</title>
<polygon fill="white" stroke="transparent" points="-4,4 -4,-242.8 1525,-242.8 1525,4 -4,4"/>
<text text-anchor="middle" x="760.5" y="-8.2" font-family="sans-serif" font-size="14.00">dependencies</text>
<g id="clust1" class="cluster">
<title>cluster_ClientModule</title>
<polygon fill="none" stroke="black" stroke-dasharray="1,5" points="8,-32.8 8,-230.8 1513,-230.8 1513,-32.8 8,-32.8"/>
</g>
<g id="clust2" class="cluster">
<title>cluster_ClientModule_declarations</title>
<polygon fill="none" stroke="black" points="292,-40.8 292,-92.8 1505,-92.8 1505,-40.8 292,-40.8"/>
</g>
<g id="clust11" class="cluster">
<title>cluster_ClientModule_imports</title>
<polygon fill="none" stroke="black" points="16,-40.8 16,-92.8 284,-92.8 284,-40.8 16,-40.8"/>
</g>
<g id="clust12" class="cluster">
<title>cluster_ClientModule_exports</title>
<polygon fill="none" stroke="black" points="205,-170.8 205,-222.8 1270,-222.8 1270,-170.8 205,-170.8"/>
</g>
<!-- CardComponent -->
<g id="node1" class="node">
<title>CardComponent</title>
<polygon fill="#ffffb3" stroke="black" points="1497.05,-84.8 1388.95,-84.8 1388.95,-48.8 1497.05,-48.8 1497.05,-84.8"/>
<text text-anchor="middle" x="1443" y="-62.6" font-family="Times,serif" font-size="14.00">CardComponent</text>
</g>
<!-- ClientModule -->
<g id="node9" class="node">
<title>ClientModule</title>
<polygon fill="#8dd3c7" stroke="black" points="749.77,-149.8 746.77,-153.8 725.77,-153.8 722.77,-149.8 656.23,-149.8 656.23,-113.8 749.77,-113.8 749.77,-149.8"/>
<text text-anchor="middle" x="703" y="-127.6" font-family="Times,serif" font-size="14.00">ClientModule</text>
</g>
<!-- CardComponent&#45;&gt;ClientModule -->
<g id="edge1" class="edge">
<title>CardComponent&#45;&gt;ClientModule</title>
<path fill="none" stroke="black" d="M1443,-84.91C1443,-104.14 1443,-131.8 1443,-131.8 1443,-131.8 759.85,-131.8 759.85,-131.8"/>
<polygon fill="black" stroke="black" points="759.85,-128.3 749.85,-131.8 759.85,-135.3 759.85,-128.3"/>
</g>
<!-- CatalogueComponent -->
<g id="node2" class="node">
<title>CatalogueComponent</title>
<polygon fill="#ffffb3" stroke="black" points="1371.09,-84.8 1232.91,-84.8 1232.91,-48.8 1371.09,-48.8 1371.09,-84.8"/>
<text text-anchor="middle" x="1302" y="-62.6" font-family="Times,serif" font-size="14.00">CatalogueComponent</text>
</g>
<!-- CatalogueComponent&#45;&gt;ClientModule -->
<g id="edge2" class="edge">
<title>CatalogueComponent&#45;&gt;ClientModule</title>
<path fill="none" stroke="black" d="M1247.49,-85.1C1247.49,-103.07 1247.49,-127.8 1247.49,-127.8 1247.49,-127.8 759.89,-127.8 759.89,-127.8"/>
<polygon fill="black" stroke="black" points="759.89,-124.3 749.89,-127.8 759.89,-131.3 759.89,-124.3"/>
</g>
<!-- CatalogueDetailComponent -->
<g id="node3" class="node">
<title>CatalogueDetailComponent</title>
<polygon fill="#ffffb3" stroke="black" points="1215.3,-84.8 1042.7,-84.8 1042.7,-48.8 1215.3,-48.8 1215.3,-84.8"/>
<text text-anchor="middle" x="1129" y="-62.6" font-family="Times,serif" font-size="14.00">CatalogueDetailComponent</text>
</g>
<!-- CatalogueDetailComponent&#45;&gt;ClientModule -->
<g id="edge3" class="edge">
<title>CatalogueDetailComponent&#45;&gt;ClientModule</title>
<path fill="none" stroke="black" d="M1087.32,-84.83C1087.32,-101.2 1087.32,-122.8 1087.32,-122.8 1087.32,-122.8 760.13,-122.8 760.13,-122.8"/>
<polygon fill="black" stroke="black" points="760.13,-119.3 750.13,-122.8 760.13,-126.3 760.13,-119.3"/>
</g>
<!-- ClientLayoutComponent -->
<g id="node4" class="node">
<title>ClientLayoutComponent</title>
<polygon fill="#ffffb3" stroke="black" points="1024.71,-84.8 869.29,-84.8 869.29,-48.8 1024.71,-48.8 1024.71,-84.8"/>
<text text-anchor="middle" x="947" y="-62.6" font-family="Times,serif" font-size="14.00">ClientLayoutComponent</text>
</g>
<!-- ClientLayoutComponent&#45;&gt;ClientModule -->
<g id="edge4" class="edge">
<title>ClientLayoutComponent&#45;&gt;ClientModule</title>
<path fill="none" stroke="black" d="M920.65,-84.99C920.65,-99.98 920.65,-118.8 920.65,-118.8 920.65,-118.8 759.96,-118.8 759.96,-118.8"/>
<polygon fill="black" stroke="black" points="759.96,-115.3 749.96,-118.8 759.96,-122.3 759.96,-115.3"/>
</g>
<!-- CommandeComponent -->
<g id="node5" class="node">
<title>CommandeComponent</title>
<polygon fill="#ffffb3" stroke="black" points="850.88,-84.8 705.12,-84.8 705.12,-48.8 850.88,-48.8 850.88,-84.8"/>
<text text-anchor="middle" x="778" y="-62.6" font-family="Times,serif" font-size="14.00">CommandeComponent</text>
</g>
<!-- CommandeComponent&#45;&gt;ClientModule -->
<g id="edge5" class="edge">
<title>CommandeComponent&#45;&gt;ClientModule</title>
<path fill="none" stroke="black" d="M727.47,-84.91C727.47,-84.91 727.47,-103.79 727.47,-103.79"/>
<polygon fill="black" stroke="black" points="723.97,-103.79 727.47,-113.79 730.97,-103.79 723.97,-103.79"/>
</g>
<!-- HomeComponent -->
<g id="node6" class="node">
<title>HomeComponent</title>
<polygon fill="#ffffb3" stroke="black" points="686.55,-84.8 571.45,-84.8 571.45,-48.8 686.55,-48.8 686.55,-84.8"/>
<text text-anchor="middle" x="629" y="-62.6" font-family="Times,serif" font-size="14.00">HomeComponent</text>
</g>
<!-- HomeComponent&#45;&gt;ClientModule -->
<g id="edge6" class="edge">
<title>HomeComponent&#45;&gt;ClientModule</title>
<path fill="none" stroke="black" d="M671.44,-84.91C671.44,-84.91 671.44,-103.79 671.44,-103.79"/>
<polygon fill="black" stroke="black" points="667.94,-103.79 671.44,-113.79 674.94,-103.79 667.94,-103.79"/>
</g>
<!-- PanierComponent -->
<g id="node7" class="node">
<title>PanierComponent</title>
<polygon fill="#ffffb3" stroke="black" points="553.6,-84.8 436.4,-84.8 436.4,-48.8 553.6,-48.8 553.6,-84.8"/>
<text text-anchor="middle" x="495" y="-62.6" font-family="Times,serif" font-size="14.00">PanierComponent</text>
</g>
<!-- PanierComponent&#45;&gt;ClientModule -->
<g id="edge7" class="edge">
<title>PanierComponent&#45;&gt;ClientModule</title>
<path fill="none" stroke="black" d="M522.51,-84.99C522.51,-99.98 522.51,-118.8 522.51,-118.8 522.51,-118.8 646.05,-118.8 646.05,-118.8"/>
<polygon fill="black" stroke="black" points="646.05,-122.3 656.05,-118.8 646.05,-115.3 646.05,-122.3"/>
</g>
<!-- TailleBoissonPipe -->
<g id="node8" class="node">
<title>TailleBoissonPipe</title>
<polygon fill="#ffffb3" stroke="black" points="418.16,-84.8 299.84,-84.8 299.84,-48.8 418.16,-48.8 418.16,-84.8"/>
<text text-anchor="middle" x="359" y="-62.6" font-family="Times,serif" font-size="14.00">TailleBoissonPipe</text>
</g>
<!-- TailleBoissonPipe&#45;&gt;ClientModule -->
<g id="edge8" class="edge">
<title>TailleBoissonPipe&#45;&gt;ClientModule</title>
<path fill="none" stroke="black" d="M385.52,-84.83C385.52,-101.2 385.52,-122.8 385.52,-122.8 385.52,-122.8 646.15,-122.8 646.15,-122.8"/>
<polygon fill="black" stroke="black" points="646.15,-126.3 656.15,-122.8 646.15,-119.3 646.15,-126.3"/>
</g>
<!-- CardComponent  -->
<g id="node12" class="node">
<title>CardComponent </title>
<polygon fill="#fb8072" stroke="black" points="1262.04,-214.8 1149.96,-214.8 1149.96,-178.8 1262.04,-178.8 1262.04,-214.8"/>
<text text-anchor="middle" x="1206" y="-192.6" font-family="Times,serif" font-size="14.00">CardComponent </text>
</g>
<!-- ClientModule&#45;&gt;CardComponent  -->
<g id="edge11" class="edge">
<title>ClientModule&#45;&gt;CardComponent </title>
<path fill="none" stroke="black" stroke-dasharray="5,2" d="M749.86,-136.8C870.53,-136.8 1182.56,-136.8 1182.56,-136.8 1182.56,-136.8 1182.56,-168.8 1182.56,-168.8"/>
<polygon fill="black" stroke="black" points="1179.06,-168.8 1182.56,-178.8 1186.06,-168.8 1179.06,-168.8"/>
</g>
<!-- CatalogueComponent  -->
<g id="node13" class="node">
<title>CatalogueComponent </title>
<polygon fill="#fb8072" stroke="black" points="1131.59,-214.8 990.41,-214.8 990.41,-178.8 1131.59,-178.8 1131.59,-214.8"/>
<text text-anchor="middle" x="1061" y="-192.6" font-family="Times,serif" font-size="14.00">CatalogueComponent </text>
</g>
<!-- ClientModule&#45;&gt;CatalogueComponent  -->
<g id="edge12" class="edge">
<title>ClientModule&#45;&gt;CatalogueComponent </title>
<path fill="none" stroke="black" stroke-dasharray="5,2" d="M749.9,-140.8C835.28,-140.8 1007.4,-140.8 1007.4,-140.8 1007.4,-140.8 1007.4,-168.77 1007.4,-168.77"/>
<polygon fill="black" stroke="black" points="1003.9,-168.77 1007.4,-178.77 1010.9,-168.77 1003.9,-168.77"/>
</g>
<!-- CatalogueDetailComponent  -->
<g id="node14" class="node">
<title>CatalogueDetailComponent </title>
<polygon fill="#fb8072" stroke="black" points="971.8,-214.8 796.2,-214.8 796.2,-178.8 971.8,-178.8 971.8,-214.8"/>
<text text-anchor="middle" x="884" y="-192.6" font-family="Times,serif" font-size="14.00">CatalogueDetailComponent </text>
</g>
<!-- ClientModule&#45;&gt;CatalogueDetailComponent  -->
<g id="edge13" class="edge">
<title>ClientModule&#45;&gt;CatalogueDetailComponent </title>
<path fill="none" stroke="black" stroke-dasharray="5,2" d="M749.94,-145.8C783.78,-145.8 823.52,-145.8 823.52,-145.8 823.52,-145.8 823.52,-168.68 823.52,-168.68"/>
<polygon fill="black" stroke="black" points="820.02,-168.68 823.52,-178.68 827.02,-168.68 820.02,-168.68"/>
</g>
<!-- CommandeComponent  -->
<g id="node15" class="node">
<title>CommandeComponent </title>
<polygon fill="#fb8072" stroke="black" points="777.88,-214.8 628.12,-214.8 628.12,-178.8 777.88,-178.8 777.88,-214.8"/>
<text text-anchor="middle" x="703" y="-192.6" font-family="Times,serif" font-size="14.00">CommandeComponent </text>
</g>
<!-- ClientModule&#45;&gt;CommandeComponent  -->
<g id="edge14" class="edge">
<title>ClientModule&#45;&gt;CommandeComponent </title>
<path fill="none" stroke="black" stroke-dasharray="5,2" d="M703,-149.91C703,-149.91 703,-168.79 703,-168.79"/>
<polygon fill="black" stroke="black" points="699.5,-168.79 703,-178.79 706.5,-168.79 699.5,-168.79"/>
</g>
<!-- HomeComponent  -->
<g id="node16" class="node">
<title>HomeComponent </title>
<polygon fill="#fb8072" stroke="black" points="610.54,-214.8 491.46,-214.8 491.46,-178.8 610.54,-178.8 610.54,-214.8"/>
<text text-anchor="middle" x="551" y="-192.6" font-family="Times,serif" font-size="14.00">HomeComponent </text>
</g>
<!-- ClientModule&#45;&gt;HomeComponent  -->
<g id="edge15" class="edge">
<title>ClientModule&#45;&gt;HomeComponent </title>
<path fill="none" stroke="black" stroke-dasharray="5,2" d="M656.1,-145.8C625.37,-145.8 590.88,-145.8 590.88,-145.8 590.88,-145.8 590.88,-168.68 590.88,-168.68"/>
<polygon fill="black" stroke="black" points="587.38,-168.68 590.88,-178.68 594.38,-168.68 587.38,-168.68"/>
</g>
<!-- PanierComponent  -->
<g id="node17" class="node">
<title>PanierComponent </title>
<polygon fill="#fb8072" stroke="black" points="473.1,-214.8 352.9,-214.8 352.9,-178.8 473.1,-178.8 473.1,-214.8"/>
<text text-anchor="middle" x="413" y="-192.6" font-family="Times,serif" font-size="14.00">PanierComponent </text>
</g>
<!-- ClientModule&#45;&gt;PanierComponent  -->
<g id="edge16" class="edge">
<title>ClientModule&#45;&gt;PanierComponent </title>
<path fill="none" stroke="black" stroke-dasharray="5,2" d="M656.04,-140.8C584.1,-140.8 454.88,-140.8 454.88,-140.8 454.88,-140.8 454.88,-168.77 454.88,-168.77"/>
<polygon fill="black" stroke="black" points="451.38,-168.77 454.88,-178.77 458.38,-168.77 451.38,-168.77"/>
</g>
<!-- TailleBoissonPipe  -->
<g id="node18" class="node">
<title>TailleBoissonPipe </title>
<polygon fill="#fb8072" stroke="black" points="335.16,-214.8 212.84,-214.8 212.84,-178.8 335.16,-178.8 335.16,-214.8"/>
<text text-anchor="middle" x="274" y="-192.6" font-family="Times,serif" font-size="14.00">TailleBoissonPipe </text>
</g>
<!-- ClientModule&#45;&gt;TailleBoissonPipe  -->
<g id="edge17" class="edge">
<title>ClientModule&#45;&gt;TailleBoissonPipe </title>
<path fill="none" stroke="black" stroke-dasharray="5,2" d="M656.1,-136.8C553.33,-136.8 317.38,-136.8 317.38,-136.8 317.38,-136.8 317.38,-168.8 317.38,-168.8"/>
<polygon fill="black" stroke="black" points="313.88,-168.8 317.38,-178.8 320.88,-168.8 313.88,-168.8"/>
</g>
<!-- ClientRoutingModule -->
<g id="node10" class="node">
<title>ClientRoutingModule</title>
<polygon fill="#8dd3c7" stroke="black" points="276.39,-84.8 273.39,-88.8 252.39,-88.8 249.39,-84.8 137.61,-84.8 137.61,-48.8 276.39,-48.8 276.39,-84.8"/>
<text text-anchor="middle" x="207" y="-62.6" font-family="Times,serif" font-size="14.00">ClientRoutingModule</text>
</g>
<!-- ClientRoutingModule&#45;&gt;ClientModule -->
<g id="edge9" class="edge">
<title>ClientRoutingModule&#45;&gt;ClientModule</title>
<path fill="none" stroke="black" d="M244.68,-85.1C244.68,-103.07 244.68,-127.8 244.68,-127.8 244.68,-127.8 646.11,-127.8 646.11,-127.8"/>
<polygon fill="black" stroke="black" points="646.11,-131.3 656.11,-127.8 646.11,-124.3 646.11,-131.3"/>
</g>
<!-- PublicModule -->
<g id="node11" class="node">
<title>PublicModule</title>
<polygon fill="#8dd3c7" stroke="black" points="119.83,-84.8 116.83,-88.8 95.83,-88.8 92.83,-84.8 24.17,-84.8 24.17,-48.8 119.83,-48.8 119.83,-84.8"/>
<text text-anchor="middle" x="72" y="-62.6" font-family="Times,serif" font-size="14.00">PublicModule</text>
</g>
<!-- PublicModule&#45;&gt;ClientModule -->
<g id="edge10" class="edge">
<title>PublicModule&#45;&gt;ClientModule</title>
<path fill="none" stroke="black" d="M72,-84.91C72,-104.14 72,-131.8 72,-131.8 72,-131.8 646.09,-131.8 646.09,-131.8"/>
<polygon fill="black" stroke="black" points="646.09,-135.3 656.09,-131.8 646.09,-128.3 646.09,-135.3"/>
</g>
</g>
</svg>
