<?xml version="1.0" encoding="UTF-8" standalone="no"?>
<!DOCTYPE svg PUBLIC "-//W3C//DTD SVG 1.1//EN"
 "http://www.w3.org/Graphics/SVG/1.1/DTD/svg11.dtd">
<!-- Generated by graphviz version 5.0.0 (20220707.1540)
 -->
<!-- Title: dependencies Pages: 1 -->
<svg width="718pt" height="247pt"
 viewBox="0.00 0.00 718.00 246.80" xmlns="http://www.w3.org/2000/svg" xmlns:xlink="http://www.w3.org/1999/xlink">
<g id="graph0" class="graph" transform="scale(1 1) rotate(0) translate(4 242.8)">
<title>dependencies</title>
<polygon fill="white" stroke="transparent" points="-4,4 -4,-242.8 714,-242.8 714,4 -4,4"/>
<text text-anchor="middle" x="355" y="-8.2" font-family="sans-serif" font-size="14.00">dependencies</text>
<g id="clust1" class="cluster">
<title>cluster_CommandeModule</title>
<polygon fill="none" stroke="black" stroke-dasharray="1,5" points="8,-32.8 8,-230.8 702,-230.8 702,-32.8 8,-32.8"/>
</g>
<g id="clust6" class="cluster">
<title>cluster_CommandeModule_exports</title>
<polygon fill="none" stroke="black" points="138,-170.8 138,-222.8 510,-222.8 510,-170.8 138,-170.8"/>
</g>
<g id="clust2" class="cluster">
<title>cluster_CommandeModule_declarations</title>
<polygon fill="none" stroke="black" points="328,-40.8 328,-92.8 694,-92.8 694,-40.8 328,-40.8"/>
</g>
<g id="clust5" class="cluster">
<title>cluster_CommandeModule_imports</title>
<polygon fill="none" stroke="black" points="16,-40.8 16,-92.8 320,-92.8 320,-40.8 16,-40.8"/>
</g>
<!-- CommandeDetailComponent -->
<g id="node1" class="node">
<title>CommandeDetailComponent</title>
<polygon fill="#ffffb3" stroke="black" points="686.08,-84.8 505.92,-84.8 505.92,-48.8 686.08,-48.8 686.08,-84.8"/>
<text text-anchor="middle" x="596" y="-62.6" font-family="Times,serif" font-size="14.00">CommandeDetailComponent</text>
</g>
<!-- CommandeModule -->
<g id="node3" class="node">
<title>CommandeModule</title>
<polygon fill="#8dd3c7" stroke="black" points="378.1,-149.8 375.1,-153.8 354.1,-153.8 351.1,-149.8 253.9,-149.8 253.9,-113.8 378.1,-113.8 378.1,-149.8"/>
<text text-anchor="middle" x="316" y="-127.6" font-family="Times,serif" font-size="14.00">CommandeModule</text>
</g>
<!-- CommandeDetailComponent&#45;&gt;CommandeModule -->
<g id="edge1" class="edge">
<title>CommandeDetailComponent&#45;&gt;CommandeModule</title>
<path fill="none" stroke="black" d="M596,-84.91C596,-104.14 596,-131.8 596,-131.8 596,-131.8 388.14,-131.8 388.14,-131.8"/>
<polygon fill="black" stroke="black" points="388.14,-128.3 378.14,-131.8 388.14,-135.3 388.14,-128.3"/>
</g>
<!-- CommandesComponent -->
<g id="node2" class="node">
<title>CommandesComponent</title>
<polygon fill="#ffffb3" stroke="black" points="487.82,-84.8 336.18,-84.8 336.18,-48.8 487.82,-48.8 487.82,-84.8"/>
<text text-anchor="middle" x="412" y="-62.6" font-family="Times,serif" font-size="14.00">CommandesComponent</text>
</g>
<!-- CommandesComponent&#45;&gt;CommandeModule -->
<g id="edge2" class="edge">
<title>CommandesComponent&#45;&gt;CommandeModule</title>
<path fill="none" stroke="black" d="M357.19,-84.91C357.19,-84.91 357.19,-103.79 357.19,-103.79"/>
<polygon fill="black" stroke="black" points="353.69,-103.79 357.19,-113.79 360.69,-103.79 353.69,-103.79"/>
</g>
<!-- CommandeDetailComponent  -->
<g id="node6" class="node">
<title>CommandeDetailComponent </title>
<polygon fill="#fb8072" stroke="black" points="501.58,-214.8 318.42,-214.8 318.42,-178.8 501.58,-178.8 501.58,-214.8"/>
<text text-anchor="middle" x="410" y="-192.6" font-family="Times,serif" font-size="14.00">CommandeDetailComponent </text>
</g>
<!-- CommandeModule&#45;&gt;CommandeDetailComponent  -->
<g id="edge5" class="edge">
<title>CommandeModule&#45;&gt;CommandeDetailComponent </title>
<path fill="none" stroke="black" stroke-dasharray="5,2" d="M348.13,-149.91C348.13,-149.91 348.13,-168.79 348.13,-168.79"/>
<polygon fill="black" stroke="black" points="344.63,-168.79 348.13,-178.79 351.63,-168.79 344.63,-168.79"/>
</g>
<!-- CommandesComponent  -->
<g id="node7" class="node">
<title>CommandesComponent </title>
<polygon fill="#fb8072" stroke="black" points="300.32,-214.8 145.68,-214.8 145.68,-178.8 300.32,-178.8 300.32,-214.8"/>
<text text-anchor="middle" x="223" y="-192.6" font-family="Times,serif" font-size="14.00">CommandesComponent </text>
</g>
<!-- CommandeModule&#45;&gt;CommandesComponent  -->
<g id="edge6" class="edge">
<title>CommandeModule&#45;&gt;CommandesComponent </title>
<path fill="none" stroke="black" stroke-dasharray="5,2" d="M277.18,-149.91C277.18,-149.91 277.18,-168.79 277.18,-168.79"/>
<polygon fill="black" stroke="black" points="273.68,-168.79 277.18,-178.79 280.68,-168.79 273.68,-168.79"/>
</g>
<!-- CommandesRoutingModule -->
<g id="node4" class="node">
<title>CommandesRoutingModule</title>
<polygon fill="#8dd3c7" stroke="black" points="312.16,-84.8 309.16,-88.8 288.16,-88.8 285.16,-84.8 137.84,-84.8 137.84,-48.8 312.16,-48.8 312.16,-84.8"/>
<text text-anchor="middle" x="225" y="-62.6" font-family="Times,serif" font-size="14.00">CommandesRoutingModule</text>
</g>
<!-- CommandesRoutingModule&#45;&gt;CommandeModule -->
<g id="edge3" class="edge">
<title>CommandesRoutingModule&#45;&gt;CommandeModule</title>
<path fill="none" stroke="black" d="M283.14,-84.91C283.14,-84.91 283.14,-103.79 283.14,-103.79"/>
<polygon fill="black" stroke="black" points="279.64,-103.79 283.14,-113.79 286.64,-103.79 279.64,-103.79"/>
</g>
<!-- PublicModule -->
<g id="node5" class="node">
<title>PublicModule</title>
<polygon fill="#8dd3c7" stroke="black" points="119.83,-84.8 116.83,-88.8 95.83,-88.8 92.83,-84.8 24.17,-84.8 24.17,-48.8 119.83,-48.8 119.83,-84.8"/>
<text text-anchor="middle" x="72" y="-62.6" font-family="Times,serif" font-size="14.00">PublicModule</text>
</g>
<!-- PublicModule&#45;&gt;CommandeModule -->
<g id="edge4" class="edge">
<title>PublicModule&#45;&gt;CommandeModule</title>
<path fill="none" stroke="black" d="M72,-84.91C72,-104.14 72,-131.8 72,-131.8 72,-131.8 243.8,-131.8 243.8,-131.8"/>
<polygon fill="black" stroke="black" points="243.8,-135.3 253.8,-131.8 243.8,-128.3 243.8,-135.3"/>
</g>
</g>
</svg>
