<?xml version="1.0" encoding="UTF-8" standalone="no"?>
<!DOCTYPE svg PUBLIC "-//W3C//DTD SVG 1.1//EN"
 "http://www.w3.org/Graphics/SVG/1.1/DTD/svg11.dtd">
<!-- Generated by graphviz version 5.0.0 (20220707.1540)
 -->
<!-- Title: dependencies Pages: 1 -->
<svg width="496pt" height="174pt"
 viewBox="0.00 0.00 496.00 173.80" xmlns="http://www.w3.org/2000/svg" xmlns:xlink="http://www.w3.org/1999/xlink">
<g id="graph0" class="graph" transform="scale(1 1) rotate(0) translate(4 169.8)">
<title>dependencies</title>
<polygon fill="white" stroke="transparent" points="-4,4 -4,-169.8 492,-169.8 492,4 -4,4"/>
<text text-anchor="middle" x="244" y="-8.2" font-family="sans-serif" font-size="14.00">dependencies</text>
<g id="clust1" class="cluster">
<title>cluster_ProduitsModule</title>
<polygon fill="none" stroke="black" stroke-dasharray="1,5" points="8,-32.8 8,-157.8 480,-157.8 480,-32.8 8,-32.8"/>
</g>
<g id="clust2" class="cluster">
<title>cluster_ProduitsModule_declarations</title>
<polygon fill="none" stroke="black" points="192,-40.8 192,-92.8 472,-92.8 472,-40.8 192,-40.8"/>
</g>
<g id="clust5" class="cluster">
<title>cluster_ProduitsModule_imports</title>
<polygon fill="none" stroke="black" points="16,-40.8 16,-92.8 184,-92.8 184,-40.8 16,-40.8"/>
</g>
<!-- CreateComponent -->
<g id="node1" class="node">
<title>CreateComponent</title>
<polygon fill="#ffffb3" stroke="black" points="463.86,-84.8 346.14,-84.8 346.14,-48.8 463.86,-48.8 463.86,-84.8"/>
<text text-anchor="middle" x="405" y="-62.6" font-family="Times,serif" font-size="14.00">CreateComponent</text>
</g>
<!-- ProduitsModule -->
<g id="node3" class="node">
<title>ProduitsModule</title>
<polygon fill="#8dd3c7" stroke="black" points="317.23,-149.8 314.23,-153.8 293.23,-153.8 290.23,-149.8 210.77,-149.8 210.77,-113.8 317.23,-113.8 317.23,-149.8"/>
<text text-anchor="middle" x="264" y="-127.6" font-family="Times,serif" font-size="14.00">ProduitsModule</text>
</g>
<!-- CreateComponent&#45;&gt;ProduitsModule -->
<g id="edge1" class="edge">
<title>CreateComponent&#45;&gt;ProduitsModule</title>
<path fill="none" stroke="black" d="M405,-84.91C405,-104.14 405,-131.8 405,-131.8 405,-131.8 327.31,-131.8 327.31,-131.8"/>
<polygon fill="black" stroke="black" points="327.31,-128.3 317.31,-131.8 327.31,-135.3 327.31,-128.3"/>
</g>
<!-- ProduitsComponent -->
<g id="node2" class="node">
<title>ProduitsComponent</title>
<polygon fill="#ffffb3" stroke="black" points="328.01,-84.8 199.99,-84.8 199.99,-48.8 328.01,-48.8 328.01,-84.8"/>
<text text-anchor="middle" x="264" y="-62.6" font-family="Times,serif" font-size="14.00">ProduitsComponent</text>
</g>
<!-- ProduitsComponent&#45;&gt;ProduitsModule -->
<g id="edge2" class="edge">
<title>ProduitsComponent&#45;&gt;ProduitsModule</title>
<path fill="none" stroke="black" d="M264,-84.91C264,-84.91 264,-103.79 264,-103.79"/>
<polygon fill="black" stroke="black" points="260.5,-103.79 264,-113.79 267.5,-103.79 260.5,-103.79"/>
</g>
<!-- ProduitsRoutingModule -->
<g id="node4" class="node">
<title>ProduitsRoutingModule</title>
<polygon fill="#8dd3c7" stroke="black" points="175.85,-84.8 172.85,-88.8 151.85,-88.8 148.85,-84.8 24.15,-84.8 24.15,-48.8 175.85,-48.8 175.85,-84.8"/>
<text text-anchor="middle" x="100" y="-62.6" font-family="Times,serif" font-size="14.00">ProduitsRoutingModule</text>
</g>
<!-- ProduitsRoutingModule&#45;&gt;ProduitsModule -->
<g id="edge3" class="edge">
<title>ProduitsRoutingModule&#45;&gt;ProduitsModule</title>
<path fill="none" stroke="black" d="M100,-84.91C100,-104.14 100,-131.8 100,-131.8 100,-131.8 200.75,-131.8 200.75,-131.8"/>
<polygon fill="black" stroke="black" points="200.75,-135.3 210.75,-131.8 200.75,-128.3 200.75,-135.3"/>
</g>
</g>
</svg>
