<?xml version="1.0" encoding="UTF-8" standalone="no"?>
<!DOCTYPE svg PUBLIC "-//W3C//DTD SVG 1.1//EN"
 "http://www.w3.org/Graphics/SVG/1.1/DTD/svg11.dtd">
<!-- Generated by graphviz version 5.0.0 (20220707.1540)
 -->
<!-- Title: dependencies Pages: 1 -->
<svg width="468pt" height="174pt"
 viewBox="0.00 0.00 468.00 173.80" xmlns="http://www.w3.org/2000/svg" xmlns:xlink="http://www.w3.org/1999/xlink">
<g id="graph0" class="graph" transform="scale(1 1) rotate(0) translate(4 169.8)">
<title>dependencies</title>
<polygon fill="white" stroke="transparent" points="-4,4 -4,-169.8 464,-169.8 464,4 -4,4"/>
<text text-anchor="middle" x="230" y="-8.2" font-family="sans-serif" font-size="14.00">dependencies</text>
<g id="clust1" class="cluster">
<title>cluster_AuthModule</title>
<polygon fill="none" stroke="black" stroke-dasharray="1,5" points="8,-32.8 8,-157.8 452,-157.8 452,-32.8 8,-32.8"/>
</g>
<g id="clust5" class="cluster">
<title>cluster_AuthModule_imports</title>
<polygon fill="none" stroke="black" points="296,-40.8 296,-92.8 444,-92.8 444,-40.8 296,-40.8"/>
</g>
<g id="clust2" class="cluster">
<title>cluster_AuthModule_declarations</title>
<polygon fill="none" stroke="black" points="16,-40.8 16,-92.8 288,-92.8 288,-40.8 16,-40.8"/>
</g>
<!-- LoginComponent -->
<g id="node1" class="node">
<title>LoginComponent</title>
<polygon fill="#ffffb3" stroke="black" points="280.27,-84.8 165.73,-84.8 165.73,-48.8 280.27,-48.8 280.27,-84.8"/>
<text text-anchor="middle" x="223" y="-62.6" font-family="Times,serif" font-size="14.00">LoginComponent</text>
</g>
<!-- AuthModule -->
<g id="node3" class="node">
<title>AuthModule</title>
<polygon fill="#8dd3c7" stroke="black" points="266.55,-149.8 263.55,-153.8 242.55,-153.8 239.55,-149.8 179.45,-149.8 179.45,-113.8 266.55,-113.8 266.55,-149.8"/>
<text text-anchor="middle" x="223" y="-127.6" font-family="Times,serif" font-size="14.00">AuthModule</text>
</g>
<!-- LoginComponent&#45;&gt;AuthModule -->
<g id="edge1" class="edge">
<title>LoginComponent&#45;&gt;AuthModule</title>
<path fill="none" stroke="black" d="M223,-84.91C223,-84.91 223,-103.79 223,-103.79"/>
<polygon fill="black" stroke="black" points="219.5,-103.79 223,-113.79 226.5,-103.79 219.5,-103.79"/>
</g>
<!-- SignUpComponent -->
<g id="node2" class="node">
<title>SignUpComponent</title>
<polygon fill="#ffffb3" stroke="black" points="148.12,-84.8 23.88,-84.8 23.88,-48.8 148.12,-48.8 148.12,-84.8"/>
<text text-anchor="middle" x="86" y="-62.6" font-family="Times,serif" font-size="14.00">SignUpComponent</text>
</g>
<!-- SignUpComponent&#45;&gt;AuthModule -->
<g id="edge2" class="edge">
<title>SignUpComponent&#45;&gt;AuthModule</title>
<path fill="none" stroke="black" d="M86,-84.91C86,-104.14 86,-131.8 86,-131.8 86,-131.8 169.28,-131.8 169.28,-131.8"/>
<polygon fill="black" stroke="black" points="169.28,-135.3 179.28,-131.8 169.28,-128.3 169.28,-135.3"/>
</g>
<!-- AuthRoutingModule -->
<g id="node4" class="node">
<title>AuthRoutingModule</title>
<polygon fill="#8dd3c7" stroke="black" points="436.17,-84.8 433.17,-88.8 412.17,-88.8 409.17,-84.8 303.83,-84.8 303.83,-48.8 436.17,-48.8 436.17,-84.8"/>
<text text-anchor="middle" x="370" y="-62.6" font-family="Times,serif" font-size="14.00">AuthRoutingModule</text>
</g>
<!-- AuthRoutingModule&#45;&gt;AuthModule -->
<g id="edge3" class="edge">
<title>AuthRoutingModule&#45;&gt;AuthModule</title>
<path fill="none" stroke="black" d="M370,-84.91C370,-104.14 370,-131.8 370,-131.8 370,-131.8 276.71,-131.8 276.71,-131.8"/>
<polygon fill="black" stroke="black" points="276.71,-128.3 266.71,-131.8 276.71,-135.3 276.71,-128.3"/>
</g>
</g>
</svg>
