<?xml version="1.0" encoding="UTF-8" standalone="no"?>
<!DOCTYPE svg PUBLIC "-//W3C//DTD SVG 1.1//EN"
 "http://www.w3.org/Graphics/SVG/1.1/DTD/svg11.dtd">
<!-- Generated by graphviz version 5.0.0 (20220707.1540)
 -->
<!-- Title: dependencies Pages: 1 -->
<svg width="761pt" height="174pt"
 viewBox="0.00 0.00 761.00 173.80" xmlns="http://www.w3.org/2000/svg" xmlns:xlink="http://www.w3.org/1999/xlink">
<g id="graph0" class="graph" transform="scale(1 1) rotate(0) translate(4 169.8)">
<title>dependencies</title>
<polygon fill="white" stroke="transparent" points="-4,4 -4,-169.8 757,-169.8 757,4 -4,4"/>
<text text-anchor="middle" x="376.5" y="-8.2" font-family="sans-serif" font-size="14.00">dependencies</text>
<g id="clust1" class="cluster">
<title>cluster_LivraisonsModule</title>
<polygon fill="none" stroke="black" stroke-dasharray="1,5" points="8,-32.8 8,-157.8 745,-157.8 745,-32.8 8,-32.8"/>
</g>
<g id="clust6" class="cluster">
<title>cluster_LivraisonsModule_imports</title>
<polygon fill="none" stroke="black" points="557,-40.8 557,-92.8 737,-92.8 737,-40.8 557,-40.8"/>
</g>
<g id="clust2" class="cluster">
<title>cluster_LivraisonsModule_declarations</title>
<polygon fill="none" stroke="black" points="16,-40.8 16,-92.8 549,-92.8 549,-40.8 16,-40.8"/>
</g>
<!-- LivraisonCreateComponent -->
<g id="node1" class="node">
<title>LivraisonCreateComponent</title>
<polygon fill="#ffffb3" stroke="black" points="540.52,-84.8 369.48,-84.8 369.48,-48.8 540.52,-48.8 540.52,-84.8"/>
<text text-anchor="middle" x="455" y="-62.6" font-family="Times,serif" font-size="14.00">LivraisonCreateComponent</text>
</g>
<!-- LivraisonsModule -->
<g id="node4" class="node">
<title>LivraisonsModule</title>
<polygon fill="#8dd3c7" stroke="black" points="420.16,-149.8 417.16,-153.8 396.16,-153.8 393.16,-149.8 301.84,-149.8 301.84,-113.8 420.16,-113.8 420.16,-149.8"/>
<text text-anchor="middle" x="361" y="-127.6" font-family="Times,serif" font-size="14.00">LivraisonsModule</text>
</g>
<!-- LivraisonCreateComponent&#45;&gt;LivraisonsModule -->
<g id="edge1" class="edge">
<title>LivraisonCreateComponent&#45;&gt;LivraisonsModule</title>
<path fill="none" stroke="black" d="M394.78,-84.91C394.78,-84.91 394.78,-103.79 394.78,-103.79"/>
<polygon fill="black" stroke="black" points="391.28,-103.79 394.78,-113.79 398.28,-103.79 391.28,-103.79"/>
</g>
<!-- LivraisonDetailComponent -->
<g id="node2" class="node">
<title>LivraisonDetailComponent</title>
<polygon fill="#ffffb3" stroke="black" points="351.69,-84.8 182.31,-84.8 182.31,-48.8 351.69,-48.8 351.69,-84.8"/>
<text text-anchor="middle" x="267" y="-62.6" font-family="Times,serif" font-size="14.00">LivraisonDetailComponent</text>
</g>
<!-- LivraisonDetailComponent&#45;&gt;LivraisonsModule -->
<g id="edge2" class="edge">
<title>LivraisonDetailComponent&#45;&gt;LivraisonsModule</title>
<path fill="none" stroke="black" d="M326.63,-84.91C326.63,-84.91 326.63,-103.79 326.63,-103.79"/>
<polygon fill="black" stroke="black" points="323.13,-103.79 326.63,-113.79 330.13,-103.79 323.13,-103.79"/>
</g>
<!-- LivraisonsComponent -->
<g id="node3" class="node">
<title>LivraisonsComponent</title>
<polygon fill="#ffffb3" stroke="black" points="164.44,-84.8 23.56,-84.8 23.56,-48.8 164.44,-48.8 164.44,-84.8"/>
<text text-anchor="middle" x="94" y="-62.6" font-family="Times,serif" font-size="14.00">LivraisonsComponent</text>
</g>
<!-- LivraisonsComponent&#45;&gt;LivraisonsModule -->
<g id="edge3" class="edge">
<title>LivraisonsComponent&#45;&gt;LivraisonsModule</title>
<path fill="none" stroke="black" d="M94,-84.91C94,-104.14 94,-131.8 94,-131.8 94,-131.8 291.74,-131.8 291.74,-131.8"/>
<polygon fill="black" stroke="black" points="291.74,-135.3 301.74,-131.8 291.74,-128.3 291.74,-135.3"/>
</g>
<!-- LivraisonsRoutingModule -->
<g id="node5" class="node">
<title>LivraisonsRoutingModule</title>
<polygon fill="#8dd3c7" stroke="black" points="728.77,-84.8 725.77,-88.8 704.77,-88.8 701.77,-84.8 565.23,-84.8 565.23,-48.8 728.77,-48.8 728.77,-84.8"/>
<text text-anchor="middle" x="647" y="-62.6" font-family="Times,serif" font-size="14.00">LivraisonsRoutingModule</text>
</g>
<!-- LivraisonsRoutingModule&#45;&gt;LivraisonsModule -->
<g id="edge4" class="edge">
<title>LivraisonsRoutingModule&#45;&gt;LivraisonsModule</title>
<path fill="none" stroke="black" d="M647,-84.91C647,-104.14 647,-131.8 647,-131.8 647,-131.8 430.26,-131.8 430.26,-131.8"/>
<polygon fill="black" stroke="black" points="430.26,-128.3 420.26,-131.8 430.26,-135.3 430.26,-128.3"/>
</g>
</g>
</svg>
