<?xml version="1.0" encoding="UTF-8" standalone="no"?>
<!DOCTYPE svg PUBLIC "-//W3C//DTD SVG 1.1//EN"
 "http://www.w3.org/Graphics/SVG/1.1/DTD/svg11.dtd">
<!-- Generated by graphviz version 5.0.0 (20220707.1540)
 -->
<!-- Title: dependencies Pages: 1 -->
<svg width="1491pt" height="247pt"
 viewBox="0.00 0.00 1491.00 246.80" xmlns="http://www.w3.org/2000/svg" xmlns:xlink="http://www.w3.org/1999/xlink">
<g id="graph0" class="graph" transform="scale(1 1) rotate(0) translate(4 242.8)">
<title>dependencies</title>
<polygon fill="white" stroke="transparent" points="-4,4 -4,-242.8 1487,-242.8 1487,4 -4,4"/>
<text text-anchor="middle" x="741.5" y="-8.2" font-family="sans-serif" font-size="14.00">dependencies</text>
<g id="clust1" class="cluster">
<title>cluster_AdminModule</title>
<polygon fill="none" stroke="black" stroke-dasharray="1,5" points="8,-32.8 8,-230.8 1475,-230.8 1475,-32.8 8,-32.8"/>
</g>
<g id="clust6" class="cluster">
<title>cluster_AdminModule_imports</title>
<polygon fill="none" stroke="black" points="538,-40.8 538,-92.8 1467,-92.8 1467,-40.8 538,-40.8"/>
</g>
<g id="clust2" class="cluster">
<title>cluster_AdminModule_declarations</title>
<polygon fill="none" stroke="black" points="16,-40.8 16,-92.8 530,-92.8 530,-40.8 16,-40.8"/>
</g>
<g id="clust7" class="cluster">
<title>cluster_AdminModule_exports</title>
<polygon fill="none" stroke="black" points="245,-170.8 245,-222.8 1360,-222.8 1360,-170.8 245,-170.8"/>
</g>
<!-- AdminHeaderComponent -->
<g id="node1" class="node">
<title>AdminHeaderComponent</title>
<polygon fill="#ffffb3" stroke="black" points="522.14,-84.8 361.86,-84.8 361.86,-48.8 522.14,-48.8 522.14,-84.8"/>
<text text-anchor="middle" x="442" y="-62.6" font-family="Times,serif" font-size="14.00">AdminHeaderComponent</text>
</g>
<!-- AdminModule -->
<g id="node4" class="node">
<title>AdminModule</title>
<polygon fill="#8dd3c7" stroke="black" points="802.44,-149.8 799.44,-153.8 778.44,-153.8 775.44,-149.8 703.56,-149.8 703.56,-113.8 802.44,-113.8 802.44,-149.8"/>
<text text-anchor="middle" x="753" y="-127.6" font-family="Times,serif" font-size="14.00">AdminModule</text>
</g>
<!-- AdminHeaderComponent&#45;&gt;AdminModule -->
<g id="edge1" class="edge">
<title>AdminHeaderComponent&#45;&gt;AdminModule</title>
<path fill="none" stroke="black" d="M509.54,-84.83C509.54,-101.2 509.54,-122.8 509.54,-122.8 509.54,-122.8 693.73,-122.8 693.73,-122.8"/>
<polygon fill="black" stroke="black" points="693.73,-126.3 703.73,-122.8 693.73,-119.3 693.73,-126.3"/>
</g>
<!-- AdminLayoutComponent -->
<g id="node2" class="node">
<title>AdminLayoutComponent</title>
<polygon fill="#ffffb3" stroke="black" points="343.88,-84.8 184.12,-84.8 184.12,-48.8 343.88,-48.8 343.88,-84.8"/>
<text text-anchor="middle" x="264" y="-62.6" font-family="Times,serif" font-size="14.00">AdminLayoutComponent</text>
</g>
<!-- AdminLayoutComponent&#45;&gt;AdminModule -->
<g id="edge2" class="edge">
<title>AdminLayoutComponent&#45;&gt;AdminModule</title>
<path fill="none" stroke="black" d="M298.26,-85.1C298.26,-103.07 298.26,-127.8 298.26,-127.8 298.26,-127.8 693.47,-127.8 693.47,-127.8"/>
<polygon fill="black" stroke="black" points="693.47,-131.3 703.47,-127.8 693.47,-124.3 693.47,-131.3"/>
</g>
<!-- DashboardComponent -->
<g id="node3" class="node">
<title>DashboardComponent</title>
<polygon fill="#ffffb3" stroke="black" points="165.98,-84.8 24.02,-84.8 24.02,-48.8 165.98,-48.8 165.98,-84.8"/>
<text text-anchor="middle" x="95" y="-62.6" font-family="Times,serif" font-size="14.00">DashboardComponent</text>
</g>
<!-- DashboardComponent&#45;&gt;AdminModule -->
<g id="edge3" class="edge">
<title>DashboardComponent&#45;&gt;AdminModule</title>
<path fill="none" stroke="black" d="M95,-84.91C95,-104.14 95,-131.8 95,-131.8 95,-131.8 693.54,-131.8 693.54,-131.8"/>
<polygon fill="black" stroke="black" points="693.54,-135.3 703.54,-131.8 693.54,-128.3 693.54,-135.3"/>
</g>
<!-- AdminRoutingModule  -->
<g id="node12" class="node">
<title>AdminRoutingModule </title>
<polygon fill="#fb8072" stroke="black" points="1351.56,-214.8 1204.44,-214.8 1204.44,-178.8 1351.56,-178.8 1351.56,-214.8"/>
<text text-anchor="middle" x="1278" y="-192.6" font-family="Times,serif" font-size="14.00">AdminRoutingModule </text>
</g>
<!-- AdminModule&#45;&gt;AdminRoutingModule  -->
<g id="edge11" class="edge">
<title>AdminModule&#45;&gt;AdminRoutingModule </title>
<path fill="none" stroke="black" stroke-dasharray="5,2" d="M802.55,-136.8C928.45,-136.8 1250.76,-136.8 1250.76,-136.8 1250.76,-136.8 1250.76,-168.8 1250.76,-168.8"/>
<polygon fill="black" stroke="black" points="1247.26,-168.8 1250.76,-178.8 1254.26,-168.8 1247.26,-168.8"/>
</g>
<!-- CommandeModule  -->
<g id="node13" class="node">
<title>CommandeModule </title>
<polygon fill="#fb8072" stroke="black" points="1186.6,-214.8 1059.4,-214.8 1059.4,-178.8 1186.6,-178.8 1186.6,-214.8"/>
<text text-anchor="middle" x="1123" y="-192.6" font-family="Times,serif" font-size="14.00">CommandeModule </text>
</g>
<!-- AdminModule&#45;&gt;CommandeModule  -->
<g id="edge12" class="edge">
<title>AdminModule&#45;&gt;CommandeModule </title>
<path fill="none" stroke="black" stroke-dasharray="5,2" d="M802.25,-140.8C899.58,-140.8 1107.23,-140.8 1107.23,-140.8 1107.23,-140.8 1107.23,-168.77 1107.23,-168.77"/>
<polygon fill="black" stroke="black" points="1103.73,-168.77 1107.23,-178.77 1110.73,-168.77 1103.73,-168.77"/>
</g>
<!-- DashboardComponent  -->
<g id="node14" class="node">
<title>DashboardComponent </title>
<polygon fill="#fb8072" stroke="black" points="1040.98,-214.8 895.02,-214.8 895.02,-178.8 1040.98,-178.8 1040.98,-214.8"/>
<text text-anchor="middle" x="968" y="-192.6" font-family="Times,serif" font-size="14.00">DashboardComponent </text>
</g>
<!-- AdminModule&#45;&gt;DashboardComponent  -->
<g id="edge13" class="edge">
<title>AdminModule&#45;&gt;DashboardComponent </title>
<path fill="none" stroke="black" stroke-dasharray="5,2" d="M802.36,-145.8C845.89,-145.8 902.47,-145.8 902.47,-145.8 902.47,-145.8 902.47,-168.68 902.47,-168.68"/>
<polygon fill="black" stroke="black" points="898.97,-168.68 902.47,-178.68 905.97,-168.68 898.97,-168.68"/>
</g>
<!-- Daterangepicker  -->
<g id="node15" class="node">
<title>Daterangepicker </title>
<polygon fill="#fb8072" stroke="black" points="877,-214.8 765,-214.8 765,-178.8 877,-178.8 877,-214.8"/>
<text text-anchor="middle" x="821" y="-192.6" font-family="Times,serif" font-size="14.00">Daterangepicker </text>
</g>
<!-- AdminModule&#45;&gt;Daterangepicker  -->
<g id="edge14" class="edge">
<title>AdminModule&#45;&gt;Daterangepicker </title>
<path fill="none" stroke="black" stroke-dasharray="5,2" d="M783.61,-149.91C783.61,-149.91 783.61,-168.79 783.61,-168.79"/>
<polygon fill="black" stroke="black" points="780.11,-168.79 783.61,-178.79 787.11,-168.79 780.11,-168.79"/>
</g>
<!-- LivraisonsModule  -->
<g id="node16" class="node">
<title>LivraisonsModule </title>
<polygon fill="#fb8072" stroke="black" points="747.16,-214.8 624.84,-214.8 624.84,-178.8 747.16,-178.8 747.16,-214.8"/>
<text text-anchor="middle" x="686" y="-192.6" font-family="Times,serif" font-size="14.00">LivraisonsModule </text>
</g>
<!-- AdminModule&#45;&gt;LivraisonsModule  -->
<g id="edge15" class="edge">
<title>AdminModule&#45;&gt;LivraisonsModule </title>
<path fill="none" stroke="black" stroke-dasharray="5,2" d="M725.43,-149.91C725.43,-149.91 725.43,-168.79 725.43,-168.79"/>
<polygon fill="black" stroke="black" points="721.93,-168.79 725.43,-178.79 728.93,-168.79 721.93,-168.79"/>
</g>
<!-- LivreursModule  -->
<g id="node17" class="node">
<title>LivreursModule </title>
<polygon fill="#fb8072" stroke="black" points="607.48,-214.8 496.52,-214.8 496.52,-178.8 607.48,-178.8 607.48,-214.8"/>
<text text-anchor="middle" x="552" y="-192.6" font-family="Times,serif" font-size="14.00">LivreursModule </text>
</g>
<!-- AdminModule&#45;&gt;LivreursModule  -->
<g id="edge16" class="edge">
<title>AdminModule&#45;&gt;LivreursModule </title>
<path fill="none" stroke="black" stroke-dasharray="5,2" d="M703.45,-145.8C651.33,-145.8 576.79,-145.8 576.79,-145.8 576.79,-145.8 576.79,-168.68 576.79,-168.68"/>
<polygon fill="black" stroke="black" points="573.29,-168.68 576.79,-178.68 580.29,-168.68 573.29,-168.68"/>
</g>
<!-- ProduitsModule  -->
<g id="node18" class="node">
<title>ProduitsModule </title>
<polygon fill="#fb8072" stroke="black" points="478.73,-214.8 369.27,-214.8 369.27,-178.8 478.73,-178.8 478.73,-214.8"/>
<text text-anchor="middle" x="424" y="-192.6" font-family="Times,serif" font-size="14.00">ProduitsModule </text>
</g>
<!-- AdminModule&#45;&gt;ProduitsModule  -->
<g id="edge17" class="edge">
<title>AdminModule&#45;&gt;ProduitsModule </title>
<path fill="none" stroke="black" stroke-dasharray="5,2" d="M703.75,-140.8C611.97,-140.8 424,-140.8 424,-140.8 424,-140.8 424,-168.77 424,-168.77"/>
<polygon fill="black" stroke="black" points="420.5,-168.77 424,-178.77 427.5,-168.77 420.5,-168.77"/>
</g>
<!-- PublicModule  -->
<g id="node19" class="node">
<title>PublicModule </title>
<polygon fill="#fb8072" stroke="black" points="351.33,-214.8 252.67,-214.8 252.67,-178.8 351.33,-178.8 351.33,-214.8"/>
<text text-anchor="middle" x="302" y="-192.6" font-family="Times,serif" font-size="14.00">PublicModule </text>
</g>
<!-- AdminModule&#45;&gt;PublicModule  -->
<g id="edge18" class="edge">
<title>AdminModule&#45;&gt;PublicModule </title>
<path fill="none" stroke="black" stroke-dasharray="5,2" d="M703.7,-136.8C595.69,-136.8 347.68,-136.8 347.68,-136.8 347.68,-136.8 347.68,-168.8 347.68,-168.8"/>
<polygon fill="black" stroke="black" points="344.18,-168.8 347.68,-178.8 351.18,-168.8 344.18,-168.8"/>
</g>
<!-- AdminRoutingModule -->
<g id="node5" class="node">
<title>AdminRoutingModule</title>
<polygon fill="#8dd3c7" stroke="black" points="1458.56,-84.8 1455.56,-88.8 1434.56,-88.8 1431.56,-84.8 1315.44,-84.8 1315.44,-48.8 1458.56,-48.8 1458.56,-84.8"/>
<text text-anchor="middle" x="1387" y="-62.6" font-family="Times,serif" font-size="14.00">AdminRoutingModule</text>
</g>
<!-- AdminRoutingModule&#45;&gt;AdminModule -->
<g id="edge4" class="edge">
<title>AdminRoutingModule&#45;&gt;AdminModule</title>
<path fill="none" stroke="black" d="M1333.38,-84.91C1333.38,-104.14 1333.38,-131.8 1333.38,-131.8 1333.38,-131.8 812.48,-131.8 812.48,-131.8"/>
<polygon fill="black" stroke="black" points="812.48,-128.3 802.48,-131.8 812.48,-135.3 812.48,-128.3"/>
</g>
<!-- CommandeModule -->
<g id="node6" class="node">
<title>CommandeModule</title>
<polygon fill="#8dd3c7" stroke="black" points="1297.1,-84.8 1294.1,-88.8 1273.1,-88.8 1270.1,-84.8 1172.9,-84.8 1172.9,-48.8 1297.1,-48.8 1297.1,-84.8"/>
<text text-anchor="middle" x="1235" y="-62.6" font-family="Times,serif" font-size="14.00">CommandeModule</text>
</g>
<!-- CommandeModule&#45;&gt;AdminModule -->
<g id="edge5" class="edge">
<title>CommandeModule&#45;&gt;AdminModule</title>
<path fill="none" stroke="black" d="M1179.88,-85.1C1179.88,-103.07 1179.88,-127.8 1179.88,-127.8 1179.88,-127.8 812.39,-127.8 812.39,-127.8"/>
<polygon fill="black" stroke="black" points="812.39,-124.3 802.39,-127.8 812.38,-131.3 812.39,-124.3"/>
</g>
<!-- Daterangepicker -->
<g id="node7" class="node">
<title>Daterangepicker</title>
<polygon fill="#8dd3c7" stroke="black" points="1155.5,-84.8 1152.5,-88.8 1131.5,-88.8 1128.5,-84.8 1046.5,-84.8 1046.5,-48.8 1155.5,-48.8 1155.5,-84.8"/>
<text text-anchor="middle" x="1101" y="-62.6" font-family="Times,serif" font-size="14.00">Daterangepicker</text>
</g>
<!-- Daterangepicker&#45;&gt;AdminModule -->
<g id="edge6" class="edge">
<title>Daterangepicker&#45;&gt;AdminModule</title>
<path fill="none" stroke="black" d="M1052.98,-84.83C1052.98,-101.2 1052.98,-122.8 1052.98,-122.8 1052.98,-122.8 812.54,-122.8 812.54,-122.8"/>
<polygon fill="black" stroke="black" points="812.54,-119.3 802.54,-122.8 812.53,-126.3 812.54,-119.3"/>
</g>
<!-- LivraisonsModule -->
<g id="node8" class="node">
<title>LivraisonsModule</title>
<polygon fill="#8dd3c7" stroke="black" points="1028.16,-84.8 1025.16,-88.8 1004.16,-88.8 1001.16,-84.8 909.84,-84.8 909.84,-48.8 1028.16,-48.8 1028.16,-84.8"/>
<text text-anchor="middle" x="969" y="-62.6" font-family="Times,serif" font-size="14.00">LivraisonsModule</text>
</g>
<!-- LivraisonsModule&#45;&gt;AdminModule -->
<g id="edge7" class="edge">
<title>LivraisonsModule&#45;&gt;AdminModule</title>
<path fill="none" stroke="black" d="M969,-84.99C969,-99.98 969,-118.8 969,-118.8 969,-118.8 812.28,-118.8 812.28,-118.8"/>
<polygon fill="black" stroke="black" points="812.28,-115.3 802.28,-118.8 812.28,-122.3 812.28,-115.3"/>
</g>
<!-- LivreursModule -->
<g id="node9" class="node">
<title>LivreursModule</title>
<polygon fill="#8dd3c7" stroke="black" points="891.48,-84.8 888.48,-88.8 867.48,-88.8 864.48,-84.8 784.52,-84.8 784.52,-48.8 891.48,-48.8 891.48,-84.8"/>
<text text-anchor="middle" x="838" y="-62.6" font-family="Times,serif" font-size="14.00">LivreursModule</text>
</g>
<!-- LivreursModule&#45;&gt;AdminModule -->
<g id="edge8" class="edge">
<title>LivreursModule&#45;&gt;AdminModule</title>
<path fill="none" stroke="black" d="M793.37,-84.91C793.37,-84.91 793.37,-103.79 793.37,-103.79"/>
<polygon fill="black" stroke="black" points="789.87,-103.79 793.37,-113.79 796.87,-103.79 789.87,-103.79"/>
</g>
<!-- ProduitsModule -->
<g id="node10" class="node">
<title>ProduitsModule</title>
<polygon fill="#8dd3c7" stroke="black" points="766.23,-84.8 763.23,-88.8 742.23,-88.8 739.23,-84.8 659.77,-84.8 659.77,-48.8 766.23,-48.8 766.23,-84.8"/>
<text text-anchor="middle" x="713" y="-62.6" font-family="Times,serif" font-size="14.00">ProduitsModule</text>
</g>
<!-- ProduitsModule&#45;&gt;AdminModule -->
<g id="edge9" class="edge">
<title>ProduitsModule&#45;&gt;AdminModule</title>
<path fill="none" stroke="black" d="M734.95,-84.91C734.95,-84.91 734.95,-103.79 734.95,-103.79"/>
<polygon fill="black" stroke="black" points="731.45,-103.79 734.95,-113.79 738.45,-103.79 731.45,-103.79"/>
</g>
<!-- PublicModule -->
<g id="node11" class="node">
<title>PublicModule</title>
<polygon fill="#8dd3c7" stroke="black" points="641.83,-84.8 638.83,-88.8 617.83,-88.8 614.83,-84.8 546.17,-84.8 546.17,-48.8 641.83,-48.8 641.83,-84.8"/>
<text text-anchor="middle" x="594" y="-62.6" font-family="Times,serif" font-size="14.00">PublicModule</text>
</g>
<!-- PublicModule&#45;&gt;AdminModule -->
<g id="edge10" class="edge">
<title>PublicModule&#45;&gt;AdminModule</title>
<path fill="none" stroke="black" d="M633.29,-84.99C633.29,-99.98 633.29,-118.8 633.29,-118.8 633.29,-118.8 693.62,-118.8 693.62,-118.8"/>
<polygon fill="black" stroke="black" points="693.62,-122.3 703.62,-118.8 693.62,-115.3 693.62,-122.3"/>
</g>
</g>
</svg>
