<?xml version="1.0" encoding="UTF-8" standalone="no"?>
<!DOCTYPE svg PUBLIC "-//W3C//DTD SVG 1.1//EN"
 "http://www.w3.org/Graphics/SVG/1.1/DTD/svg11.dtd">
<!-- Generated by graphviz version 5.0.0 (20220707.1540)
 -->
<!-- Title: dependencies Pages: 1 -->
<svg width="1278pt" height="247pt"
 viewBox="0.00 0.00 1278.00 246.80" xmlns="http://www.w3.org/2000/svg" xmlns:xlink="http://www.w3.org/1999/xlink">
<g id="graph0" class="graph" transform="scale(1 1) rotate(0) translate(4 242.8)">
<title>dependencies</title>
<polygon fill="white" stroke="transparent" points="-4,4 -4,-242.8 1274,-242.8 1274,4 -4,4"/>
<text text-anchor="middle" x="635" y="-8.2" font-family="sans-serif" font-size="14.00">dependencies</text>
<g id="clust1" class="cluster">
<title>cluster_AppModule</title>
<polygon fill="none" stroke="black" stroke-dasharray="1,5" points="8,-32.8 8,-230.8 1262,-230.8 1262,-32.8 8,-32.8"/>
</g>
<g id="clust8" class="cluster">
<title>cluster_AppModule_imports</title>
<polygon fill="none" stroke="black" points="762,-40.8 762,-92.8 1254,-92.8 1254,-40.8 762,-40.8"/>
</g>
<g id="clust10" class="cluster">
<title>cluster_AppModule_bootstrap</title>
<polygon fill="none" stroke="black" points="631,-170.8 631,-222.8 755,-222.8 755,-170.8 631,-170.8"/>
</g>
<g id="clust2" class="cluster">
<title>cluster_AppModule_declarations</title>
<polygon fill="none" stroke="black" points="16,-40.8 16,-92.8 754,-92.8 754,-40.8 16,-40.8"/>
</g>
<!-- AppComponent -->
<g id="node1" class="node">
<title>AppComponent</title>
<polygon fill="#ffffb3" stroke="black" points="745.94,-84.8 640.06,-84.8 640.06,-48.8 745.94,-48.8 745.94,-84.8"/>
<text text-anchor="middle" x="693" y="-62.6" font-family="Times,serif" font-size="14.00">AppComponent</text>
</g>
<!-- AppModule -->
<g id="node6" class="node">
<title>AppModule</title>
<polygon fill="#8dd3c7" stroke="black" points="734.66,-149.8 731.66,-153.8 710.66,-153.8 707.66,-149.8 651.34,-149.8 651.34,-113.8 734.66,-113.8 734.66,-149.8"/>
<text text-anchor="middle" x="693" y="-127.6" font-family="Times,serif" font-size="14.00">AppModule</text>
</g>
<!-- AppComponent&#45;&gt;AppModule -->
<g id="edge1" class="edge">
<title>AppComponent&#45;&gt;AppModule</title>
<path fill="none" stroke="black" d="M693,-84.91C693,-84.91 693,-103.79 693,-103.79"/>
<polygon fill="black" stroke="black" points="689.5,-103.79 693,-113.79 696.5,-103.79 689.5,-103.79"/>
</g>
<!-- CommandeComponent -->
<g id="node2" class="node">
<title>CommandeComponent</title>
<polygon fill="#ffffb3" stroke="black" points="621.88,-84.8 476.12,-84.8 476.12,-48.8 621.88,-48.8 621.88,-84.8"/>
<text text-anchor="middle" x="549" y="-62.6" font-family="Times,serif" font-size="14.00">CommandeComponent</text>
</g>
<!-- CommandeComponent&#45;&gt;AppModule -->
<g id="edge2" class="edge">
<title>CommandeComponent&#45;&gt;AppModule</title>
<path fill="none" stroke="black" d="M549,-84.81C549,-100.85 549,-121.8 549,-121.8 549,-121.8 640.96,-121.8 640.96,-121.8"/>
<polygon fill="black" stroke="black" points="640.96,-125.3 650.96,-121.8 640.96,-118.3 640.96,-125.3"/>
</g>
<!-- CommandeDetailComponent -->
<g id="node3" class="node">
<title>CommandeDetailComponent</title>
<polygon fill="#ffffb3" stroke="black" points="458.08,-84.8 277.92,-84.8 277.92,-48.8 458.08,-48.8 458.08,-84.8"/>
<text text-anchor="middle" x="368" y="-62.6" font-family="Times,serif" font-size="14.00">CommandeDetailComponent</text>
</g>
<!-- CommandeDetailComponent&#45;&gt;AppModule -->
<g id="edge3" class="edge">
<title>CommandeDetailComponent&#45;&gt;AppModule</title>
<path fill="none" stroke="black" d="M368,-85.07C368,-103.36 368,-128.8 368,-128.8 368,-128.8 641.18,-128.8 641.18,-128.8"/>
<polygon fill="black" stroke="black" points="641.18,-132.3 651.18,-128.8 641.18,-125.3 641.18,-132.3"/>
</g>
<!-- FormatEtat -->
<g id="node4" class="node">
<title>FormatEtat</title>
<polygon fill="#ffffb3" stroke="black" points="259.49,-84.8 180.51,-84.8 180.51,-48.8 259.49,-48.8 259.49,-84.8"/>
<text text-anchor="middle" x="220" y="-62.6" font-family="Times,serif" font-size="14.00">FormatEtat</text>
</g>
<!-- FormatEtat&#45;&gt;AppModule -->
<g id="edge4" class="edge">
<title>FormatEtat&#45;&gt;AppModule</title>
<path fill="none" stroke="black" d="M220,-84.93C220,-105.37 220,-135.8 220,-135.8 220,-135.8 641.02,-135.8 641.02,-135.8"/>
<polygon fill="black" stroke="black" points="641.02,-139.3 651.02,-135.8 641.02,-132.3 641.02,-139.3"/>
</g>
<!-- NotFoundComponent -->
<g id="node5" class="node">
<title>NotFoundComponent</title>
<polygon fill="#ffffb3" stroke="black" points="162.12,-84.8 23.88,-84.8 23.88,-48.8 162.12,-48.8 162.12,-84.8"/>
<text text-anchor="middle" x="93" y="-62.6" font-family="Times,serif" font-size="14.00">NotFoundComponent</text>
</g>
<!-- NotFoundComponent&#45;&gt;AppModule -->
<g id="edge5" class="edge">
<title>NotFoundComponent&#45;&gt;AppModule</title>
<path fill="none" stroke="black" d="M93,-84.81C93,-107.29 93,-142.8 93,-142.8 93,-142.8 641.29,-142.8 641.29,-142.8"/>
<polygon fill="black" stroke="black" points="641.29,-146.3 651.29,-142.8 641.29,-139.3 641.29,-146.3"/>
</g>
<!-- AppComponent  -->
<g id="node11" class="node">
<title>AppComponent </title>
<polygon fill="#80b1d3" stroke="black" points="747.44,-214.8 638.56,-214.8 638.56,-178.8 747.44,-178.8 747.44,-214.8"/>
<text text-anchor="middle" x="693" y="-192.6" font-family="Times,serif" font-size="14.00">AppComponent </text>
</g>
<!-- AppModule&#45;&gt;AppComponent  -->
<g id="edge10" class="edge">
<title>AppModule&#45;&gt;AppComponent </title>
<path fill="none" stroke="black" stroke-dasharray="1,5" d="M693,-149.91C693,-149.91 693,-168.79 693,-168.79"/>
<polygon fill="black" stroke="black" points="689.5,-168.79 693,-178.79 696.5,-168.79 689.5,-168.79"/>
</g>
<!-- AdminModule -->
<g id="node7" class="node">
<title>AdminModule</title>
<polygon fill="#8dd3c7" stroke="black" points="1246.44,-84.8 1243.44,-88.8 1222.44,-88.8 1219.44,-84.8 1147.56,-84.8 1147.56,-48.8 1246.44,-48.8 1246.44,-84.8"/>
<text text-anchor="middle" x="1197" y="-62.6" font-family="Times,serif" font-size="14.00">AdminModule</text>
</g>
<!-- AdminModule&#45;&gt;AppModule -->
<g id="edge6" class="edge">
<title>AdminModule&#45;&gt;AppModule</title>
<path fill="none" stroke="black" d="M1197,-84.81C1197,-107.29 1197,-142.8 1197,-142.8 1197,-142.8 744.67,-142.8 744.67,-142.8"/>
<polygon fill="black" stroke="black" points="744.67,-139.3 734.67,-142.8 744.67,-146.3 744.67,-139.3"/>
</g>
<!-- AppRoutingModule -->
<g id="node8" class="node">
<title>AppRoutingModule</title>
<polygon fill="#8dd3c7" stroke="black" points="1129.28,-84.8 1126.28,-88.8 1105.28,-88.8 1102.28,-84.8 1000.72,-84.8 1000.72,-48.8 1129.28,-48.8 1129.28,-84.8"/>
<text text-anchor="middle" x="1065" y="-62.6" font-family="Times,serif" font-size="14.00">AppRoutingModule</text>
</g>
<!-- AppRoutingModule&#45;&gt;AppModule -->
<g id="edge7" class="edge">
<title>AppRoutingModule&#45;&gt;AppModule</title>
<path fill="none" stroke="black" d="M1065,-84.93C1065,-105.37 1065,-135.8 1065,-135.8 1065,-135.8 744.95,-135.8 744.95,-135.8"/>
<polygon fill="black" stroke="black" points="744.95,-132.3 734.95,-135.8 744.95,-139.3 744.95,-132.3"/>
</g>
<!-- LayoutModule -->
<g id="node9" class="node">
<title>LayoutModule</title>
<polygon fill="#8dd3c7" stroke="black" points="982.71,-84.8 979.71,-88.8 958.71,-88.8 955.71,-84.8 883.29,-84.8 883.29,-48.8 982.71,-48.8 982.71,-84.8"/>
<text text-anchor="middle" x="933" y="-62.6" font-family="Times,serif" font-size="14.00">LayoutModule</text>
</g>
<!-- LayoutModule&#45;&gt;AppModule -->
<g id="edge8" class="edge">
<title>LayoutModule&#45;&gt;AppModule</title>
<path fill="none" stroke="black" d="M933,-85.07C933,-103.36 933,-128.8 933,-128.8 933,-128.8 744.8,-128.8 744.8,-128.8"/>
<polygon fill="black" stroke="black" points="744.8,-125.3 734.8,-128.8 744.8,-132.3 744.8,-125.3"/>
</g>
<!-- PublicModule -->
<g id="node10" class="node">
<title>PublicModule</title>
<polygon fill="#8dd3c7" stroke="black" points="865.83,-84.8 862.83,-88.8 841.83,-88.8 838.83,-84.8 770.17,-84.8 770.17,-48.8 865.83,-48.8 865.83,-84.8"/>
<text text-anchor="middle" x="818" y="-62.6" font-family="Times,serif" font-size="14.00">PublicModule</text>
</g>
<!-- PublicModule&#45;&gt;AppModule -->
<g id="edge9" class="edge">
<title>PublicModule&#45;&gt;AppModule</title>
<path fill="none" stroke="black" d="M818,-84.81C818,-100.85 818,-121.8 818,-121.8 818,-121.8 744.97,-121.8 744.97,-121.8"/>
<polygon fill="black" stroke="black" points="744.97,-118.3 734.97,-121.8 744.97,-125.3 744.97,-118.3"/>
</g>
</g>
</svg>
