<?xml version="1.0" encoding="UTF-8" standalone="no"?>
<!DOCTYPE svg PUBLIC "-//W3C//DTD SVG 1.1//EN"
 "http://www.w3.org/Graphics/SVG/1.1/DTD/svg11.dtd">
<!-- Generated by graphviz version 5.0.0 (20220707.1540)
 -->
<!-- Title: dependencies Pages: 1 -->
<svg width="2192pt" height="247pt"
 viewBox="0.00 0.00 2192.00 246.80" xmlns="http://www.w3.org/2000/svg" xmlns:xlink="http://www.w3.org/1999/xlink">
<g id="graph0" class="graph" transform="scale(1 1) rotate(0) translate(4 242.8)">
<title>dependencies</title>
<polygon fill="white" stroke="transparent" points="-4,4 -4,-242.8 2188,-242.8 2188,4 -4,4"/>
<text text-anchor="middle" x="1092" y="-8.2" font-family="sans-serif" font-size="14.00">dependencies</text>
<g id="clust1" class="cluster">
<title>cluster_AppModule</title>
<polygon fill="none" stroke="black" stroke-dasharray="1,5" points="8,-32.8 8,-230.8 2176,-230.8 2176,-32.8 8,-32.8"/>
</g>
<g id="clust15" class="cluster">
<title>cluster_AppModule_imports</title>
<polygon fill="none" stroke="black" points="1789,-40.8 1789,-92.8 2168,-92.8 2168,-40.8 1789,-40.8"/>
</g>
<g id="clust17" class="cluster">
<title>cluster_AppModule_bootstrap</title>
<polygon fill="none" stroke="black" points="1069,-170.8 1069,-222.8 1193,-222.8 1193,-170.8 1069,-170.8"/>
</g>
<g id="clust2" class="cluster">
<title>cluster_AppModule_declarations</title>
<polygon fill="none" stroke="black" points="16,-40.8 16,-92.8 1781,-92.8 1781,-40.8 16,-40.8"/>
</g>
<!-- AppComponent -->
<g id="node1" class="node">
<title>AppComponent</title>
<polygon fill="#ffffb3" stroke="black" points="1772.94,-84.8 1667.06,-84.8 1667.06,-48.8 1772.94,-48.8 1772.94,-84.8"/>
<text text-anchor="middle" x="1720" y="-62.6" font-family="Times,serif" font-size="14.00">AppComponent</text>
</g>
<!-- AppModule -->
<g id="node13" class="node">
<title>AppModule</title>
<polygon fill="#8dd3c7" stroke="black" points="1172.66,-149.8 1169.66,-153.8 1148.66,-153.8 1145.66,-149.8 1089.34,-149.8 1089.34,-113.8 1172.66,-113.8 1172.66,-149.8"/>
<text text-anchor="middle" x="1131" y="-127.6" font-family="Times,serif" font-size="14.00">AppModule</text>
</g>
<!-- AppComponent&#45;&gt;AppModule -->
<g id="edge1" class="edge">
<title>AppComponent&#45;&gt;AppModule</title>
<path fill="none" stroke="black" d="M1720,-84.91C1720,-104.14 1720,-131.8 1720,-131.8 1720,-131.8 1182.89,-131.8 1182.89,-131.8"/>
<polygon fill="black" stroke="black" points="1182.89,-128.3 1172.89,-131.8 1182.89,-135.3 1182.89,-128.3"/>
</g>
<!-- CardComponent -->
<g id="node2" class="node">
<title>CardComponent</title>
<polygon fill="#ffffb3" stroke="black" points="1649.05,-84.8 1540.95,-84.8 1540.95,-48.8 1649.05,-48.8 1649.05,-84.8"/>
<text text-anchor="middle" x="1595" y="-62.6" font-family="Times,serif" font-size="14.00">CardComponent</text>
</g>
<!-- CardComponent&#45;&gt;AppModule -->
<g id="edge2" class="edge">
<title>CardComponent&#45;&gt;AppModule</title>
<path fill="none" stroke="black" d="M1595,-85.1C1595,-103.07 1595,-127.8 1595,-127.8 1595,-127.8 1183,-127.8 1183,-127.8"/>
<polygon fill="black" stroke="black" points="1183,-124.3 1173,-127.8 1183,-131.3 1183,-124.3"/>
</g>
<!-- CarouselComponent -->
<g id="node3" class="node">
<title>CarouselComponent</title>
<polygon fill="#ffffb3" stroke="black" points="1522.6,-84.8 1391.4,-84.8 1391.4,-48.8 1522.6,-48.8 1522.6,-84.8"/>
<text text-anchor="middle" x="1457" y="-62.6" font-family="Times,serif" font-size="14.00">CarouselComponent</text>
</g>
<!-- CarouselComponent&#45;&gt;AppModule -->
<g id="edge3" class="edge">
<title>CarouselComponent&#45;&gt;AppModule</title>
<path fill="none" stroke="black" d="M1457,-84.83C1457,-101.2 1457,-122.8 1457,-122.8 1457,-122.8 1182.95,-122.8 1182.95,-122.8"/>
<polygon fill="black" stroke="black" points="1182.95,-119.3 1172.95,-122.8 1182.95,-126.3 1182.95,-119.3"/>
</g>
<!-- CatalogueComponent -->
<g id="node4" class="node">
<title>CatalogueComponent</title>
<polygon fill="#ffffb3" stroke="black" points="1373.09,-84.8 1234.91,-84.8 1234.91,-48.8 1373.09,-48.8 1373.09,-84.8"/>
<text text-anchor="middle" x="1304" y="-62.6" font-family="Times,serif" font-size="14.00">CatalogueComponent</text>
</g>
<!-- CatalogueComponent&#45;&gt;AppModule -->
<g id="edge4" class="edge">
<title>CatalogueComponent&#45;&gt;AppModule</title>
<path fill="none" stroke="black" d="M1304,-84.99C1304,-99.98 1304,-118.8 1304,-118.8 1304,-118.8 1182.88,-118.8 1182.88,-118.8"/>
<polygon fill="black" stroke="black" points="1182.88,-115.3 1172.88,-118.8 1182.88,-122.3 1182.88,-115.3"/>
</g>
<!-- CatalogueDetailComponent -->
<g id="node5" class="node">
<title>CatalogueDetailComponent</title>
<polygon fill="#ffffb3" stroke="black" points="1217.3,-84.8 1044.7,-84.8 1044.7,-48.8 1217.3,-48.8 1217.3,-84.8"/>
<text text-anchor="middle" x="1131" y="-62.6" font-family="Times,serif" font-size="14.00">CatalogueDetailComponent</text>
</g>
<!-- CatalogueDetailComponent&#45;&gt;AppModule -->
<g id="edge5" class="edge">
<title>CatalogueDetailComponent&#45;&gt;AppModule</title>
<path fill="none" stroke="black" d="M1131,-84.91C1131,-84.91 1131,-103.79 1131,-103.79"/>
<polygon fill="black" stroke="black" points="1127.5,-103.79 1131,-113.79 1134.5,-103.79 1127.5,-103.79"/>
</g>
<!-- CommandeComponent -->
<g id="node6" class="node">
<title>CommandeComponent</title>
<polygon fill="#ffffb3" stroke="black" points="1026.88,-84.8 881.12,-84.8 881.12,-48.8 1026.88,-48.8 1026.88,-84.8"/>
<text text-anchor="middle" x="954" y="-62.6" font-family="Times,serif" font-size="14.00">CommandeComponent</text>
</g>
<!-- CommandeComponent&#45;&gt;AppModule -->
<g id="edge6" class="edge">
<title>CommandeComponent&#45;&gt;AppModule</title>
<path fill="none" stroke="black" d="M954,-84.99C954,-99.98 954,-118.8 954,-118.8 954,-118.8 1079.05,-118.8 1079.05,-118.8"/>
<polygon fill="black" stroke="black" points="1079.05,-122.3 1089.05,-118.8 1079.05,-115.3 1079.05,-122.3"/>
</g>
<!-- CommandeDetailComponent -->
<g id="node7" class="node">
<title>CommandeDetailComponent</title>
<polygon fill="#ffffb3" stroke="black" points="863.08,-84.8 682.92,-84.8 682.92,-48.8 863.08,-48.8 863.08,-84.8"/>
<text text-anchor="middle" x="773" y="-62.6" font-family="Times,serif" font-size="14.00">CommandeDetailComponent</text>
</g>
<!-- CommandeDetailComponent&#45;&gt;AppModule -->
<g id="edge7" class="edge">
<title>CommandeDetailComponent&#45;&gt;AppModule</title>
<path fill="none" stroke="black" d="M773,-84.83C773,-101.2 773,-122.8 773,-122.8 773,-122.8 1079.23,-122.8 1079.23,-122.8"/>
<polygon fill="black" stroke="black" points="1079.23,-126.3 1089.23,-122.8 1079.23,-119.3 1079.23,-126.3"/>
</g>
<!-- FormatEtat -->
<g id="node8" class="node">
<title>FormatEtat</title>
<polygon fill="#ffffb3" stroke="black" points="664.49,-84.8 585.51,-84.8 585.51,-48.8 664.49,-48.8 664.49,-84.8"/>
<text text-anchor="middle" x="625" y="-62.6" font-family="Times,serif" font-size="14.00">FormatEtat</text>
</g>
<!-- FormatEtat&#45;&gt;AppModule -->
<g id="edge8" class="edge">
<title>FormatEtat&#45;&gt;AppModule</title>
<path fill="none" stroke="black" d="M625,-85.1C625,-103.07 625,-127.8 625,-127.8 625,-127.8 1079.16,-127.8 1079.16,-127.8"/>
<polygon fill="black" stroke="black" points="1079.16,-131.3 1089.16,-127.8 1079.16,-124.3 1079.16,-131.3"/>
</g>
<!-- HomeComponent -->
<g id="node9" class="node">
<title>HomeComponent</title>
<polygon fill="#ffffb3" stroke="black" points="567.55,-84.8 452.45,-84.8 452.45,-48.8 567.55,-48.8 567.55,-84.8"/>
<text text-anchor="middle" x="510" y="-62.6" font-family="Times,serif" font-size="14.00">HomeComponent</text>
</g>
<!-- HomeComponent&#45;&gt;AppModule -->
<g id="edge9" class="edge">
<title>HomeComponent&#45;&gt;AppModule</title>
<path fill="none" stroke="black" d="M510,-84.91C510,-104.14 510,-131.8 510,-131.8 510,-131.8 1079.29,-131.8 1079.29,-131.8"/>
<polygon fill="black" stroke="black" points="1079.29,-135.3 1089.29,-131.8 1079.29,-128.3 1079.29,-135.3"/>
</g>
<!-- NotFoundComponent -->
<g id="node10" class="node">
<title>NotFoundComponent</title>
<polygon fill="#ffffb3" stroke="black" points="434.12,-84.8 295.88,-84.8 295.88,-48.8 434.12,-48.8 434.12,-84.8"/>
<text text-anchor="middle" x="365" y="-62.6" font-family="Times,serif" font-size="14.00">NotFoundComponent</text>
</g>
<!-- NotFoundComponent&#45;&gt;AppModule -->
<g id="edge10" class="edge">
<title>NotFoundComponent&#45;&gt;AppModule</title>
<path fill="none" stroke="black" d="M365,-84.83C365,-105.57 365,-136.8 365,-136.8 365,-136.8 1079.27,-136.8 1079.27,-136.8"/>
<polygon fill="black" stroke="black" points="1079.27,-140.3 1089.27,-136.8 1079.27,-133.3 1079.27,-140.3"/>
</g>
<!-- PanierComponent -->
<g id="node11" class="node">
<title>PanierComponent</title>
<polygon fill="#ffffb3" stroke="black" points="277.6,-84.8 160.4,-84.8 160.4,-48.8 277.6,-48.8 277.6,-84.8"/>
<text text-anchor="middle" x="219" y="-62.6" font-family="Times,serif" font-size="14.00">PanierComponent</text>
</g>
<!-- PanierComponent&#45;&gt;AppModule -->
<g id="edge11" class="edge">
<title>PanierComponent&#45;&gt;AppModule</title>
<path fill="none" stroke="black" d="M219,-85.09C219,-107.01 219,-140.8 219,-140.8 219,-140.8 1079.14,-140.8 1079.14,-140.8"/>
<polygon fill="black" stroke="black" points="1079.14,-144.3 1089.14,-140.8 1079.14,-137.3 1079.14,-144.3"/>
</g>
<!-- TailleBoissonPipe -->
<g id="node12" class="node">
<title>TailleBoissonPipe</title>
<polygon fill="#ffffb3" stroke="black" points="142.16,-84.8 23.84,-84.8 23.84,-48.8 142.16,-48.8 142.16,-84.8"/>
<text text-anchor="middle" x="83" y="-62.6" font-family="Times,serif" font-size="14.00">TailleBoissonPipe</text>
</g>
<!-- TailleBoissonPipe&#45;&gt;AppModule -->
<g id="edge12" class="edge">
<title>TailleBoissonPipe&#45;&gt;AppModule</title>
<path fill="none" stroke="black" d="M83,-85.12C83,-108.46 83,-145.8 83,-145.8 83,-145.8 1079.27,-145.8 1079.27,-145.8"/>
<polygon fill="black" stroke="black" points="1079.27,-149.3 1089.27,-145.8 1079.27,-142.3 1079.27,-149.3"/>
</g>
<!-- AppComponent  -->
<g id="node17" class="node">
<title>AppComponent </title>
<polygon fill="#80b1d3" stroke="black" points="1185.44,-214.8 1076.56,-214.8 1076.56,-178.8 1185.44,-178.8 1185.44,-214.8"/>
<text text-anchor="middle" x="1131" y="-192.6" font-family="Times,serif" font-size="14.00">AppComponent </text>
</g>
<!-- AppModule&#45;&gt;AppComponent  -->
<g id="edge16" class="edge">
<title>AppModule&#45;&gt;AppComponent </title>
<path fill="none" stroke="black" stroke-dasharray="1,5" d="M1131,-149.91C1131,-149.91 1131,-168.79 1131,-168.79"/>
<polygon fill="black" stroke="black" points="1127.5,-168.79 1131,-178.79 1134.5,-168.79 1127.5,-168.79"/>
</g>
<!-- AdminModule -->
<g id="node14" class="node">
<title>AdminModule</title>
<polygon fill="#8dd3c7" stroke="black" points="2160.44,-84.8 2157.44,-88.8 2136.44,-88.8 2133.44,-84.8 2061.56,-84.8 2061.56,-48.8 2160.44,-48.8 2160.44,-84.8"/>
<text text-anchor="middle" x="2111" y="-62.6" font-family="Times,serif" font-size="14.00">AdminModule</text>
</g>
<!-- AdminModule&#45;&gt;AppModule -->
<g id="edge13" class="edge">
<title>AdminModule&#45;&gt;AppModule</title>
<path fill="none" stroke="black" d="M2111,-85.12C2111,-108.46 2111,-145.8 2111,-145.8 2111,-145.8 1182.8,-145.8 1182.8,-145.8"/>
<polygon fill="black" stroke="black" points="1182.8,-142.3 1172.8,-145.8 1182.8,-149.3 1182.8,-142.3"/>
</g>
<!-- AppRoutingModule -->
<g id="node15" class="node">
<title>AppRoutingModule</title>
<polygon fill="#8dd3c7" stroke="black" points="2043.28,-84.8 2040.28,-88.8 2019.28,-88.8 2016.28,-84.8 1914.72,-84.8 1914.72,-48.8 2043.28,-48.8 2043.28,-84.8"/>
<text text-anchor="middle" x="1979" y="-62.6" font-family="Times,serif" font-size="14.00">AppRoutingModule</text>
</g>
<!-- AppRoutingModule&#45;&gt;AppModule -->
<g id="edge14" class="edge">
<title>AppRoutingModule&#45;&gt;AppModule</title>
<path fill="none" stroke="black" d="M1979,-85.09C1979,-107.01 1979,-140.8 1979,-140.8 1979,-140.8 1182.76,-140.8 1182.76,-140.8"/>
<polygon fill="black" stroke="black" points="1182.76,-137.3 1172.76,-140.8 1182.76,-144.3 1182.76,-137.3"/>
</g>
<!-- LayoutModule -->
<g id="node16" class="node">
<title>LayoutModule</title>
<polygon fill="#8dd3c7" stroke="black" points="1896.71,-84.8 1893.71,-88.8 1872.71,-88.8 1869.71,-84.8 1797.29,-84.8 1797.29,-48.8 1896.71,-48.8 1896.71,-84.8"/>
<text text-anchor="middle" x="1847" y="-62.6" font-family="Times,serif" font-size="14.00">LayoutModule</text>
</g>
<!-- LayoutModule&#45;&gt;AppModule -->
<g id="edge15" class="edge">
<title>LayoutModule&#45;&gt;AppModule</title>
<path fill="none" stroke="black" d="M1847,-84.83C1847,-105.57 1847,-136.8 1847,-136.8 1847,-136.8 1182.85,-136.8 1182.85,-136.8"/>
<polygon fill="black" stroke="black" points="1182.85,-133.3 1172.85,-136.8 1182.85,-140.3 1182.85,-133.3"/>
</g>
</g>
</svg>
