<?xml version="1.0" encoding="UTF-8" standalone="no"?>
<!DOCTYPE svg PUBLIC "-//W3C//DTD SVG 1.1//EN"
 "http://www.w3.org/Graphics/SVG/1.1/DTD/svg11.dtd">
<!-- Generated by graphviz version 5.0.0 (20220707.1540)
 -->
<!-- Title: dependencies Pages: 1 -->
<svg width="813pt" height="247pt"
 viewBox="0.00 0.00 813.00 246.80" xmlns="http://www.w3.org/2000/svg" xmlns:xlink="http://www.w3.org/1999/xlink">
<g id="graph0" class="graph" transform="scale(1 1) rotate(0) translate(4 242.8)">
<title>dependencies</title>
<polygon fill="white" stroke="transparent" points="-4,4 -4,-242.8 809,-242.8 809,4 -4,4"/>
<text text-anchor="middle" x="402.5" y="-8.2" font-family="sans-serif" font-size="14.00">dependencies</text>
<g id="clust1" class="cluster">
<title>cluster_AppModule</title>
<polygon fill="none" stroke="black" stroke-dasharray="1,5" points="8,-32.8 8,-230.8 797,-230.8 797,-32.8 8,-32.8"/>
</g>
<g id="clust5" class="cluster">
<title>cluster_AppModule_imports</title>
<polygon fill="none" stroke="black" points="302,-40.8 302,-92.8 789,-92.8 789,-40.8 302,-40.8"/>
</g>
<g id="clust7" class="cluster">
<title>cluster_AppModule_bootstrap</title>
<polygon fill="none" stroke="black" points="352,-170.8 352,-222.8 476,-222.8 476,-170.8 352,-170.8"/>
</g>
<g id="clust2" class="cluster">
<title>cluster_AppModule_declarations</title>
<polygon fill="none" stroke="black" points="16,-40.8 16,-92.8 294,-92.8 294,-40.8 16,-40.8"/>
</g>
<!-- AppComponent -->
<g id="node1" class="node">
<title>AppComponent</title>
<polygon fill="#ffffb3" stroke="black" points="285.94,-84.8 180.06,-84.8 180.06,-48.8 285.94,-48.8 285.94,-84.8"/>
<text text-anchor="middle" x="233" y="-62.6" font-family="Times,serif" font-size="14.00">AppComponent</text>
</g>
<!-- AppModule -->
<g id="node3" class="node">
<title>AppModule</title>
<polygon fill="#8dd3c7" stroke="black" points="455.66,-149.8 452.66,-153.8 431.66,-153.8 428.66,-149.8 372.34,-149.8 372.34,-113.8 455.66,-113.8 455.66,-149.8"/>
<text text-anchor="middle" x="414" y="-127.6" font-family="Times,serif" font-size="14.00">AppModule</text>
</g>
<!-- AppComponent&#45;&gt;AppModule -->
<g id="edge1" class="edge">
<title>AppComponent&#45;&gt;AppModule</title>
<path fill="none" stroke="black" d="M233,-84.82C233,-102.17 233,-125.8 233,-125.8 233,-125.8 362.02,-125.8 362.02,-125.8"/>
<polygon fill="black" stroke="black" points="362.02,-129.3 372.02,-125.8 362.02,-122.3 362.02,-129.3"/>
</g>
<!-- NotFoundComponent -->
<g id="node2" class="node">
<title>NotFoundComponent</title>
<polygon fill="#ffffb3" stroke="black" points="162.12,-84.8 23.88,-84.8 23.88,-48.8 162.12,-48.8 162.12,-84.8"/>
<text text-anchor="middle" x="93" y="-62.6" font-family="Times,serif" font-size="14.00">NotFoundComponent</text>
</g>
<!-- NotFoundComponent&#45;&gt;AppModule -->
<g id="edge2" class="edge">
<title>NotFoundComponent&#45;&gt;AppModule</title>
<path fill="none" stroke="black" d="M93,-85.08C93,-106.12 93,-137.8 93,-137.8 93,-137.8 362.03,-137.8 362.03,-137.8"/>
<polygon fill="black" stroke="black" points="362.03,-141.3 372.03,-137.8 362.03,-134.3 362.03,-141.3"/>
</g>
<!-- AppComponent  -->
<g id="node8" class="node">
<title>AppComponent </title>
<polygon fill="#80b1d3" stroke="black" points="468.44,-214.8 359.56,-214.8 359.56,-178.8 468.44,-178.8 468.44,-214.8"/>
<text text-anchor="middle" x="414" y="-192.6" font-family="Times,serif" font-size="14.00">AppComponent </text>
</g>
<!-- AppModule&#45;&gt;AppComponent  -->
<g id="edge7" class="edge">
<title>AppModule&#45;&gt;AppComponent </title>
<path fill="none" stroke="black" stroke-dasharray="1,5" d="M414,-149.91C414,-149.91 414,-168.79 414,-168.79"/>
<polygon fill="black" stroke="black" points="410.5,-168.79 414,-178.79 417.5,-168.79 410.5,-168.79"/>
</g>
<!-- AdminModule -->
<g id="node4" class="node">
<title>AdminModule</title>
<polygon fill="#8dd3c7" stroke="black" points="781.44,-84.8 778.44,-88.8 757.44,-88.8 754.44,-84.8 682.56,-84.8 682.56,-48.8 781.44,-48.8 781.44,-84.8"/>
<text text-anchor="middle" x="732" y="-62.6" font-family="Times,serif" font-size="14.00">AdminModule</text>
</g>
<!-- AdminModule&#45;&gt;AppModule -->
<g id="edge3" class="edge">
<title>AdminModule&#45;&gt;AppModule</title>
<path fill="none" stroke="black" d="M732,-85.08C732,-106.12 732,-137.8 732,-137.8 732,-137.8 465.9,-137.8 465.9,-137.8"/>
<polygon fill="black" stroke="black" points="465.9,-134.3 455.9,-137.8 465.9,-141.3 465.9,-134.3"/>
</g>
<!-- AppRoutingModule -->
<g id="node5" class="node">
<title>AppRoutingModule</title>
<polygon fill="#8dd3c7" stroke="black" points="664.28,-84.8 661.28,-88.8 640.28,-88.8 637.28,-84.8 535.72,-84.8 535.72,-48.8 664.28,-48.8 664.28,-84.8"/>
<text text-anchor="middle" x="600" y="-62.6" font-family="Times,serif" font-size="14.00">AppRoutingModule</text>
</g>
<!-- AppRoutingModule&#45;&gt;AppModule -->
<g id="edge4" class="edge">
<title>AppRoutingModule&#45;&gt;AppModule</title>
<path fill="none" stroke="black" d="M600,-84.82C600,-102.17 600,-125.8 600,-125.8 600,-125.8 465.74,-125.8 465.74,-125.8"/>
<polygon fill="black" stroke="black" points="465.74,-122.3 455.74,-125.8 465.74,-129.3 465.74,-122.3"/>
</g>
<!-- ClientModule -->
<g id="node6" class="node">
<title>ClientModule</title>
<polygon fill="#8dd3c7" stroke="black" points="517.77,-84.8 514.77,-88.8 493.77,-88.8 490.77,-84.8 424.23,-84.8 424.23,-48.8 517.77,-48.8 517.77,-84.8"/>
<text text-anchor="middle" x="471" y="-62.6" font-family="Times,serif" font-size="14.00">ClientModule</text>
</g>
<!-- ClientModule&#45;&gt;AppModule -->
<g id="edge5" class="edge">
<title>ClientModule&#45;&gt;AppModule</title>
<path fill="none" stroke="black" d="M439.97,-84.91C439.97,-84.91 439.97,-103.79 439.97,-103.79"/>
<polygon fill="black" stroke="black" points="436.47,-103.79 439.97,-113.79 443.47,-103.79 436.47,-103.79"/>
</g>
<!-- PublicModule -->
<g id="node7" class="node">
<title>PublicModule</title>
<polygon fill="#8dd3c7" stroke="black" points="405.83,-84.8 402.83,-88.8 381.83,-88.8 378.83,-84.8 310.17,-84.8 310.17,-48.8 405.83,-48.8 405.83,-84.8"/>
<text text-anchor="middle" x="358" y="-62.6" font-family="Times,serif" font-size="14.00">PublicModule</text>
</g>
<!-- PublicModule&#45;&gt;AppModule -->
<g id="edge6" class="edge">
<title>PublicModule&#45;&gt;AppModule</title>
<path fill="none" stroke="black" d="M388.92,-84.91C388.92,-84.91 388.92,-103.79 388.92,-103.79"/>
<polygon fill="black" stroke="black" points="385.42,-103.79 388.92,-113.79 392.42,-103.79 385.42,-103.79"/>
</g>
</g>
</svg>
