<?xml version="1.0" encoding="UTF-8" standalone="no"?>
<!DOCTYPE svg PUBLIC "-//W3C//DTD SVG 1.1//EN"
 "http://www.w3.org/Graphics/SVG/1.1/DTD/svg11.dtd">
<!-- Generated by graphviz version 5.0.0 (20220707.1540)
 -->
<!-- Title: dependencies Pages: 1 -->
<svg width="448pt" height="247pt"
 viewBox="0.00 0.00 448.00 246.80" xmlns="http://www.w3.org/2000/svg" xmlns:xlink="http://www.w3.org/1999/xlink">
<g id="graph0" class="graph" transform="scale(1 1) rotate(0) translate(4 242.8)">
<title>dependencies</title>
<polygon fill="white" stroke="transparent" points="-4,4 -4,-242.8 444,-242.8 444,4 -4,4"/>
<text text-anchor="middle" x="220" y="-8.2" font-family="sans-serif" font-size="14.00">dependencies</text>
<g id="clust1" class="cluster">
<title>cluster_LayoutModule</title>
<polygon fill="none" stroke="black" stroke-dasharray="1,5" points="8,-32.8 8,-230.8 432,-230.8 432,-32.8 8,-32.8"/>
</g>
<g id="clust7" class="cluster">
<title>cluster_LayoutModule_exports</title>
<polygon fill="none" stroke="black" points="80,-170.8 80,-222.8 361,-222.8 361,-170.8 80,-170.8"/>
</g>
<g id="clust2" class="cluster">
<title>cluster_LayoutModule_declarations</title>
<polygon fill="none" stroke="black" points="16,-40.8 16,-92.8 424,-92.8 424,-40.8 16,-40.8"/>
</g>
<!-- FooterComponent -->
<g id="node1" class="node">
<title>FooterComponent</title>
<polygon fill="#ffffb3" stroke="black" points="415.88,-84.8 298.12,-84.8 298.12,-48.8 415.88,-48.8 415.88,-84.8"/>
<text text-anchor="middle" x="357" y="-62.6" font-family="Times,serif" font-size="14.00">FooterComponent</text>
</g>
<!-- LayoutModule -->
<g id="node4" class="node">
<title>LayoutModule</title>
<polygon fill="#8dd3c7" stroke="black" points="271.71,-149.8 268.71,-153.8 247.71,-153.8 244.71,-149.8 172.29,-149.8 172.29,-113.8 271.71,-113.8 271.71,-149.8"/>
<text text-anchor="middle" x="222" y="-127.6" font-family="Times,serif" font-size="14.00">LayoutModule</text>
</g>
<!-- FooterComponent&#45;&gt;LayoutModule -->
<g id="edge1" class="edge">
<title>FooterComponent&#45;&gt;LayoutModule</title>
<path fill="none" stroke="black" d="M325.38,-84.91C325.38,-104.14 325.38,-131.8 325.38,-131.8 325.38,-131.8 281.87,-131.8 281.87,-131.8"/>
<polygon fill="black" stroke="black" points="281.87,-128.3 271.87,-131.8 281.87,-135.3 281.87,-128.3"/>
</g>
<!-- HasRoleDirective -->
<g id="node2" class="node">
<title>HasRoleDirective</title>
<polygon fill="#ffffb3" stroke="black" points="280.3,-84.8 163.7,-84.8 163.7,-48.8 280.3,-48.8 280.3,-84.8"/>
<text text-anchor="middle" x="222" y="-62.6" font-family="Times,serif" font-size="14.00">HasRoleDirective</text>
</g>
<!-- HasRoleDirective&#45;&gt;LayoutModule -->
<g id="edge2" class="edge">
<title>HasRoleDirective&#45;&gt;LayoutModule</title>
<path fill="none" stroke="black" d="M222,-84.91C222,-84.91 222,-103.79 222,-103.79"/>
<polygon fill="black" stroke="black" points="218.5,-103.79 222,-113.79 225.5,-103.79 218.5,-103.79"/>
</g>
<!-- HeaderComponent -->
<g id="node3" class="node">
<title>HeaderComponent</title>
<polygon fill="#ffffb3" stroke="black" points="145.75,-84.8 24.25,-84.8 24.25,-48.8 145.75,-48.8 145.75,-84.8"/>
<text text-anchor="middle" x="85" y="-62.6" font-family="Times,serif" font-size="14.00">HeaderComponent</text>
</g>
<!-- HeaderComponent&#45;&gt;LayoutModule -->
<g id="edge3" class="edge">
<title>HeaderComponent&#45;&gt;LayoutModule</title>
<path fill="none" stroke="black" d="M117.12,-84.91C117.12,-104.14 117.12,-131.8 117.12,-131.8 117.12,-131.8 162.33,-131.8 162.33,-131.8"/>
<polygon fill="black" stroke="black" points="162.33,-135.3 172.33,-131.8 162.33,-128.3 162.33,-135.3"/>
</g>
<!-- FooterComponent  -->
<g id="node5" class="node">
<title>FooterComponent </title>
<polygon fill="#fb8072" stroke="black" points="352.88,-214.8 231.12,-214.8 231.12,-178.8 352.88,-178.8 352.88,-214.8"/>
<text text-anchor="middle" x="292" y="-192.6" font-family="Times,serif" font-size="14.00">FooterComponent </text>
</g>
<!-- LayoutModule&#45;&gt;FooterComponent  -->
<g id="edge4" class="edge">
<title>LayoutModule&#45;&gt;FooterComponent </title>
<path fill="none" stroke="black" stroke-dasharray="5,2" d="M251.46,-149.91C251.46,-149.91 251.46,-168.79 251.46,-168.79"/>
<polygon fill="black" stroke="black" points="247.96,-168.79 251.46,-178.79 254.96,-168.79 247.96,-168.79"/>
</g>
<!-- HeaderComponent  -->
<g id="node6" class="node">
<title>HeaderComponent </title>
<polygon fill="#fb8072" stroke="black" points="213.75,-214.8 88.25,-214.8 88.25,-178.8 213.75,-178.8 213.75,-214.8"/>
<text text-anchor="middle" x="151" y="-192.6" font-family="Times,serif" font-size="14.00">HeaderComponent </text>
</g>
<!-- LayoutModule&#45;&gt;HeaderComponent  -->
<g id="edge5" class="edge">
<title>LayoutModule&#45;&gt;HeaderComponent </title>
<path fill="none" stroke="black" stroke-dasharray="5,2" d="M193.01,-149.91C193.01,-149.91 193.01,-168.79 193.01,-168.79"/>
<polygon fill="black" stroke="black" points="189.51,-168.79 193.01,-178.79 196.51,-168.79 189.51,-168.79"/>
</g>
</g>
</svg>
