<?xml version="1.0" encoding="UTF-8" standalone="no"?>
<!DOCTYPE svg PUBLIC "-//W3C//DTD SVG 1.1//EN"
 "http://www.w3.org/Graphics/SVG/1.1/DTD/svg11.dtd">
<!-- Generated by graphviz version 5.0.0 (20220707.1540)
 -->
<!-- Title: dependencies Pages: 1 -->
<svg width="1079pt" height="247pt"
 viewBox="0.00 0.00 1079.00 246.80" xmlns="http://www.w3.org/2000/svg" xmlns:xlink="http://www.w3.org/1999/xlink">
<g id="graph0" class="graph" transform="scale(1 1) rotate(0) translate(4 242.8)">
<title>dependencies</title>
<polygon fill="white" stroke="transparent" points="-4,4 -4,-242.8 1075,-242.8 1075,4 -4,4"/>
<text text-anchor="middle" x="535.5" y="-8.2" font-family="sans-serif" font-size="14.00">dependencies</text>
<g id="clust1" class="cluster">
<title>cluster_PublicModule</title>
<polygon fill="none" stroke="black" stroke-dasharray="1,5" points="8,-32.8 8,-230.8 1063,-230.8 1063,-32.8 8,-32.8"/>
</g>
<g id="clust10" class="cluster">
<title>cluster_PublicModule_exports</title>
<polygon fill="none" stroke="black" points="229,-170.8 229,-222.8 856,-222.8 856,-170.8 229,-170.8"/>
</g>
<g id="clust2" class="cluster">
<title>cluster_PublicModule_declarations</title>
<polygon fill="none" stroke="black" points="180,-40.8 180,-92.8 1055,-92.8 1055,-40.8 180,-40.8"/>
</g>
<g id="clust9" class="cluster">
<title>cluster_PublicModule_imports</title>
<polygon fill="none" stroke="black" points="16,-40.8 16,-92.8 172,-92.8 172,-40.8 16,-40.8"/>
</g>
<!-- CardComponent -->
<g id="node1" class="node">
<title>CardComponent</title>
<polygon fill="#ffffb3" stroke="black" points="1047.05,-84.8 938.95,-84.8 938.95,-48.8 1047.05,-48.8 1047.05,-84.8"/>
<text text-anchor="middle" x="993" y="-62.6" font-family="Times,serif" font-size="14.00">CardComponent</text>
</g>
<!-- PublicModule -->
<g id="node7" class="node">
<title>PublicModule</title>
<polygon fill="#8dd3c7" stroke="black" points="564.83,-149.8 561.83,-153.8 540.83,-153.8 537.83,-149.8 469.17,-149.8 469.17,-113.8 564.83,-113.8 564.83,-149.8"/>
<text text-anchor="middle" x="517" y="-127.6" font-family="Times,serif" font-size="14.00">PublicModule</text>
</g>
<!-- CardComponent&#45;&gt;PublicModule -->
<g id="edge1" class="edge">
<title>CardComponent&#45;&gt;PublicModule</title>
<path fill="none" stroke="black" d="M993,-84.93C993,-105.37 993,-135.8 993,-135.8 993,-135.8 574.82,-135.8 574.82,-135.8"/>
<polygon fill="black" stroke="black" points="574.82,-132.3 564.82,-135.8 574.82,-139.3 574.82,-132.3"/>
</g>
<!-- CatalogueComponent -->
<g id="node2" class="node">
<title>CatalogueComponent</title>
<polygon fill="#ffffb3" stroke="black" points="921.09,-84.8 782.91,-84.8 782.91,-48.8 921.09,-48.8 921.09,-84.8"/>
<text text-anchor="middle" x="852" y="-62.6" font-family="Times,serif" font-size="14.00">CatalogueComponent</text>
</g>
<!-- CatalogueComponent&#45;&gt;PublicModule -->
<g id="edge2" class="edge">
<title>CatalogueComponent&#45;&gt;PublicModule</title>
<path fill="none" stroke="black" d="M815.38,-85.07C815.38,-103.36 815.38,-128.8 815.38,-128.8 815.38,-128.8 574.94,-128.8 574.94,-128.8"/>
<polygon fill="black" stroke="black" points="574.94,-125.3 564.94,-128.8 574.94,-132.3 574.94,-125.3"/>
</g>
<!-- CatalogueDetailComponent -->
<g id="node3" class="node">
<title>CatalogueDetailComponent</title>
<polygon fill="#ffffb3" stroke="black" points="765.3,-84.8 592.7,-84.8 592.7,-48.8 765.3,-48.8 765.3,-84.8"/>
<text text-anchor="middle" x="679" y="-62.6" font-family="Times,serif" font-size="14.00">CatalogueDetailComponent</text>
</g>
<!-- CatalogueDetailComponent&#45;&gt;PublicModule -->
<g id="edge3" class="edge">
<title>CatalogueDetailComponent&#45;&gt;PublicModule</title>
<path fill="none" stroke="black" d="M640.38,-84.81C640.38,-100.85 640.38,-121.8 640.38,-121.8 640.38,-121.8 574.7,-121.8 574.7,-121.8"/>
<polygon fill="black" stroke="black" points="574.7,-118.3 564.7,-121.8 574.7,-125.3 574.7,-118.3"/>
</g>
<!-- HomeComponent -->
<g id="node4" class="node">
<title>HomeComponent</title>
<polygon fill="#ffffb3" stroke="black" points="574.55,-84.8 459.45,-84.8 459.45,-48.8 574.55,-48.8 574.55,-84.8"/>
<text text-anchor="middle" x="517" y="-62.6" font-family="Times,serif" font-size="14.00">HomeComponent</text>
</g>
<!-- HomeComponent&#45;&gt;PublicModule -->
<g id="edge4" class="edge">
<title>HomeComponent&#45;&gt;PublicModule</title>
<path fill="none" stroke="black" d="M517,-84.91C517,-84.91 517,-103.79 517,-103.79"/>
<polygon fill="black" stroke="black" points="513.5,-103.79 517,-113.79 520.5,-103.79 513.5,-103.79"/>
</g>
<!-- PanierComponent -->
<g id="node5" class="node">
<title>PanierComponent</title>
<polygon fill="#ffffb3" stroke="black" points="441.6,-84.8 324.4,-84.8 324.4,-48.8 441.6,-48.8 441.6,-84.8"/>
<text text-anchor="middle" x="383" y="-62.6" font-family="Times,serif" font-size="14.00">PanierComponent</text>
</g>
<!-- PanierComponent&#45;&gt;PublicModule -->
<g id="edge5" class="edge">
<title>PanierComponent&#45;&gt;PublicModule</title>
<path fill="none" stroke="black" d="M408.51,-84.81C408.51,-100.85 408.51,-121.8 408.51,-121.8 408.51,-121.8 459.1,-121.8 459.1,-121.8"/>
<polygon fill="black" stroke="black" points="459.1,-125.3 469.1,-121.8 459.1,-118.3 459.1,-125.3"/>
</g>
<!-- TailleBoissonPipe -->
<g id="node6" class="node">
<title>TailleBoissonPipe</title>
<polygon fill="#ffffb3" stroke="black" points="306.16,-84.8 187.84,-84.8 187.84,-48.8 306.16,-48.8 306.16,-84.8"/>
<text text-anchor="middle" x="247" y="-62.6" font-family="Times,serif" font-size="14.00">TailleBoissonPipe</text>
</g>
<!-- TailleBoissonPipe&#45;&gt;PublicModule -->
<g id="edge6" class="edge">
<title>TailleBoissonPipe&#45;&gt;PublicModule</title>
<path fill="none" stroke="black" d="M271.52,-85.07C271.52,-103.36 271.52,-128.8 271.52,-128.8 271.52,-128.8 459.09,-128.8 459.09,-128.8"/>
<polygon fill="black" stroke="black" points="459.09,-132.3 469.09,-128.8 459.09,-125.3 459.09,-132.3"/>
</g>
<!-- CatalogueComponent  -->
<g id="node9" class="node">
<title>CatalogueComponent </title>
<polygon fill="#fb8072" stroke="black" points="847.59,-214.8 706.41,-214.8 706.41,-178.8 847.59,-178.8 847.59,-214.8"/>
<text text-anchor="middle" x="777" y="-192.6" font-family="Times,serif" font-size="14.00">CatalogueComponent </text>
</g>
<!-- PublicModule&#45;&gt;CatalogueComponent  -->
<g id="edge8" class="edge">
<title>PublicModule&#45;&gt;CatalogueComponent </title>
<path fill="none" stroke="black" stroke-dasharray="5,2" d="M564.72,-142.8C629.06,-142.8 735.68,-142.8 735.68,-142.8 735.68,-142.8 735.68,-168.52 735.68,-168.52"/>
<polygon fill="black" stroke="black" points="732.18,-168.52 735.68,-178.52 739.18,-168.52 732.18,-168.52"/>
</g>
<!-- CatalogueDetailComponent  -->
<g id="node10" class="node">
<title>CatalogueDetailComponent </title>
<polygon fill="#fb8072" stroke="black" points="687.8,-214.8 512.2,-214.8 512.2,-178.8 687.8,-178.8 687.8,-214.8"/>
<text text-anchor="middle" x="600" y="-192.6" font-family="Times,serif" font-size="14.00">CatalogueDetailComponent </text>
</g>
<!-- PublicModule&#45;&gt;CatalogueDetailComponent  -->
<g id="edge9" class="edge">
<title>PublicModule&#45;&gt;CatalogueDetailComponent </title>
<path fill="none" stroke="black" stroke-dasharray="5,2" d="M538.38,-149.91C538.38,-149.91 538.38,-168.79 538.38,-168.79"/>
<polygon fill="black" stroke="black" points="534.88,-168.79 538.38,-178.79 541.88,-168.79 534.88,-168.79"/>
</g>
<!-- HomeComponent  -->
<g id="node11" class="node">
<title>HomeComponent </title>
<polygon fill="#fb8072" stroke="black" points="494.54,-214.8 375.46,-214.8 375.46,-178.8 494.54,-178.8 494.54,-214.8"/>
<text text-anchor="middle" x="435" y="-192.6" font-family="Times,serif" font-size="14.00">HomeComponent </text>
</g>
<!-- PublicModule&#45;&gt;HomeComponent  -->
<g id="edge10" class="edge">
<title>PublicModule&#45;&gt;HomeComponent </title>
<path fill="none" stroke="black" stroke-dasharray="5,2" d="M481.93,-149.91C481.93,-149.91 481.93,-168.79 481.93,-168.79"/>
<polygon fill="black" stroke="black" points="478.43,-168.79 481.93,-178.79 485.43,-168.79 478.43,-168.79"/>
</g>
<!-- PanierComponent  -->
<g id="node12" class="node">
<title>PanierComponent </title>
<polygon fill="#fb8072" stroke="black" points="357.1,-214.8 236.9,-214.8 236.9,-178.8 357.1,-178.8 357.1,-214.8"/>
<text text-anchor="middle" x="297" y="-192.6" font-family="Times,serif" font-size="14.00">PanierComponent </text>
</g>
<!-- PublicModule&#45;&gt;PanierComponent  -->
<g id="edge11" class="edge">
<title>PublicModule&#45;&gt;PanierComponent </title>
<path fill="none" stroke="black" stroke-dasharray="5,2" d="M468.87,-142.8C416.73,-142.8 340.88,-142.8 340.88,-142.8 340.88,-142.8 340.88,-168.52 340.88,-168.52"/>
<polygon fill="black" stroke="black" points="337.38,-168.52 340.88,-178.52 344.38,-168.52 337.38,-168.52"/>
</g>
<!-- PublicRoutingModule -->
<g id="node8" class="node">
<title>PublicRoutingModule</title>
<polygon fill="#8dd3c7" stroke="black" points="164.45,-84.8 161.45,-88.8 140.45,-88.8 137.45,-84.8 23.55,-84.8 23.55,-48.8 164.45,-48.8 164.45,-84.8"/>
<text text-anchor="middle" x="94" y="-62.6" font-family="Times,serif" font-size="14.00">PublicRoutingModule</text>
</g>
<!-- PublicRoutingModule&#45;&gt;PublicModule -->
<g id="edge7" class="edge">
<title>PublicRoutingModule&#45;&gt;PublicModule</title>
<path fill="none" stroke="black" d="M94,-84.93C94,-105.37 94,-135.8 94,-135.8 94,-135.8 459.3,-135.8 459.3,-135.8"/>
<polygon fill="black" stroke="black" points="459.3,-139.3 469.3,-135.8 459.3,-132.3 459.3,-139.3"/>
</g>
</g>
</svg>
