<?xml version="1.0" encoding="UTF-8" standalone="no"?>
<!DOCTYPE svg PUBLIC "-//W3C//DTD SVG 1.1//EN"
 "http://www.w3.org/Graphics/SVG/1.1/DTD/svg11.dtd">
<!-- Generated by graphviz version 5.0.0 (20220707.1540)
 -->
<!-- Title: dependencies Pages: 1 -->
<svg width="416pt" height="247pt"
 viewBox="0.00 0.00 416.00 246.80" xmlns="http://www.w3.org/2000/svg" xmlns:xlink="http://www.w3.org/1999/xlink">
<g id="graph0" class="graph" transform="scale(1 1) rotate(0) translate(4 242.8)">
<title>dependencies</title>
<polygon fill="white" stroke="transparent" points="-4,4 -4,-242.8 412,-242.8 412,4 -4,4"/>
<text text-anchor="middle" x="204" y="-8.2" font-family="sans-serif" font-size="14.00">dependencies</text>
<g id="clust1" class="cluster">
<title>cluster_PublicModule</title>
<polygon fill="none" stroke="black" stroke-dasharray="1,5" points="8,-32.8 8,-230.8 400,-230.8 400,-32.8 8,-32.8"/>
</g>
<g id="clust4" class="cluster">
<title>cluster_PublicModule_imports</title>
<polygon fill="none" stroke="black" points="118,-40.8 118,-92.8 392,-92.8 392,-40.8 118,-40.8"/>
</g>
<g id="clust2" class="cluster">
<title>cluster_PublicModule_declarations</title>
<polygon fill="none" stroke="black" points="16,-40.8 16,-92.8 110,-92.8 110,-40.8 16,-40.8"/>
</g>
<g id="clust5" class="cluster">
<title>cluster_PublicModule_exports</title>
<polygon fill="none" stroke="black" points="82,-170.8 82,-222.8 301,-222.8 301,-170.8 82,-170.8"/>
</g>
<!-- FormatEtat -->
<g id="node1" class="node">
<title>FormatEtat</title>
<polygon fill="#ffffb3" stroke="black" points="102.49,-84.8 23.51,-84.8 23.51,-48.8 102.49,-48.8 102.49,-84.8"/>
<text text-anchor="middle" x="63" y="-62.6" font-family="Times,serif" font-size="14.00">FormatEtat</text>
</g>
<!-- PublicModule -->
<g id="node2" class="node">
<title>PublicModule</title>
<polygon fill="#8dd3c7" stroke="black" points="243.83,-149.8 240.83,-153.8 219.83,-153.8 216.83,-149.8 148.17,-149.8 148.17,-113.8 243.83,-113.8 243.83,-149.8"/>
<text text-anchor="middle" x="196" y="-127.6" font-family="Times,serif" font-size="14.00">PublicModule</text>
</g>
<!-- FormatEtat&#45;&gt;PublicModule -->
<g id="edge1" class="edge">
<title>FormatEtat&#45;&gt;PublicModule</title>
<path fill="none" stroke="black" d="M96.07,-84.91C96.07,-104.14 96.07,-131.8 96.07,-131.8 96.07,-131.8 138.08,-131.8 138.08,-131.8"/>
<polygon fill="black" stroke="black" points="138.08,-135.3 148.08,-131.8 138.08,-128.3 138.08,-135.3"/>
</g>
<!-- FormatEtat  -->
<g id="node5" class="node">
<title>FormatEtat </title>
<polygon fill="#fb8072" stroke="black" points="293.49,-214.8 210.51,-214.8 210.51,-178.8 293.49,-178.8 293.49,-214.8"/>
<text text-anchor="middle" x="252" y="-192.6" font-family="Times,serif" font-size="14.00">FormatEtat </text>
</g>
<!-- PublicModule&#45;&gt;FormatEtat  -->
<g id="edge4" class="edge">
<title>PublicModule&#45;&gt;FormatEtat </title>
<path fill="none" stroke="black" stroke-dasharray="5,2" d="M227.21,-149.91C227.21,-149.91 227.21,-168.79 227.21,-168.79"/>
<polygon fill="black" stroke="black" points="223.71,-168.79 227.21,-178.79 230.71,-168.79 223.71,-168.79"/>
</g>
<!-- LayoutModule  -->
<g id="node6" class="node">
<title>LayoutModule </title>
<polygon fill="#fb8072" stroke="black" points="192.21,-214.8 89.79,-214.8 89.79,-178.8 192.21,-178.8 192.21,-214.8"/>
<text text-anchor="middle" x="141" y="-192.6" font-family="Times,serif" font-size="14.00">LayoutModule </text>
</g>
<!-- PublicModule&#45;&gt;LayoutModule  -->
<g id="edge5" class="edge">
<title>PublicModule&#45;&gt;LayoutModule </title>
<path fill="none" stroke="black" stroke-dasharray="5,2" d="M170.34,-149.91C170.34,-149.91 170.34,-168.79 170.34,-168.79"/>
<polygon fill="black" stroke="black" points="166.84,-168.79 170.34,-178.79 173.84,-168.79 166.84,-168.79"/>
</g>
<!-- LayoutModule -->
<g id="node3" class="node">
<title>LayoutModule</title>
<polygon fill="#8dd3c7" stroke="black" points="383.71,-84.8 380.71,-88.8 359.71,-88.8 356.71,-84.8 284.29,-84.8 284.29,-48.8 383.71,-48.8 383.71,-84.8"/>
<text text-anchor="middle" x="334" y="-62.6" font-family="Times,serif" font-size="14.00">LayoutModule</text>
</g>
<!-- LayoutModule&#45;&gt;PublicModule -->
<g id="edge2" class="edge">
<title>LayoutModule&#45;&gt;PublicModule</title>
<path fill="none" stroke="black" d="M288.82,-84.91C288.82,-104.14 288.82,-131.8 288.82,-131.8 288.82,-131.8 253.77,-131.8 253.77,-131.8"/>
<polygon fill="black" stroke="black" points="253.77,-128.3 243.77,-131.8 253.77,-135.3 253.77,-128.3"/>
</g>
<!-- PublicRoutingModule -->
<g id="node4" class="node">
<title>PublicRoutingModule</title>
<polygon fill="#8dd3c7" stroke="black" points="266.45,-84.8 263.45,-88.8 242.45,-88.8 239.45,-84.8 125.55,-84.8 125.55,-48.8 266.45,-48.8 266.45,-84.8"/>
<text text-anchor="middle" x="196" y="-62.6" font-family="Times,serif" font-size="14.00">PublicRoutingModule</text>
</g>
<!-- PublicRoutingModule&#45;&gt;PublicModule -->
<g id="edge3" class="edge">
<title>PublicRoutingModule&#45;&gt;PublicModule</title>
<path fill="none" stroke="black" d="M196,-84.91C196,-84.91 196,-103.79 196,-103.79"/>
<polygon fill="black" stroke="black" points="192.5,-103.79 196,-113.79 199.5,-103.79 192.5,-103.79"/>
</g>
</g>
</svg>
