<?xml version="1.0" encoding="UTF-8" standalone="no"?>
<!DOCTYPE svg PUBLIC "-//W3C//DTD SVG 1.1//EN"
 "http://www.w3.org/Graphics/SVG/1.1/DTD/svg11.dtd">
<!-- Generated by graphviz version 5.0.0 (20220707.1540)
 -->
<!-- Title: dependencies Pages: 1 -->
<svg width="714pt" height="174pt"
 viewBox="0.00 0.00 714.00 173.80" xmlns="http://www.w3.org/2000/svg" xmlns:xlink="http://www.w3.org/1999/xlink">
<g id="graph0" class="graph" transform="scale(1 1) rotate(0) translate(4 169.8)">
<title>dependencies</title>
<polygon fill="white" stroke="transparent" points="-4,4 -4,-169.8 710,-169.8 710,4 -4,4"/>
<text text-anchor="middle" x="353" y="-8.2" font-family="sans-serif" font-size="14.00">dependencies</text>
<g id="clust1" class="cluster">
<title>cluster_LivreursModule</title>
<polygon fill="none" stroke="black" stroke-dasharray="1,5" points="8,-32.8 8,-157.8 698,-157.8 698,-32.8 8,-32.8"/>
</g>
<g id="clust2" class="cluster">
<title>cluster_LivreursModule_declarations</title>
<polygon fill="none" stroke="black" points="192,-40.8 192,-92.8 690,-92.8 690,-40.8 192,-40.8"/>
</g>
<g id="clust6" class="cluster">
<title>cluster_LivreursModule_imports</title>
<polygon fill="none" stroke="black" points="16,-40.8 16,-92.8 184,-92.8 184,-40.8 16,-40.8"/>
</g>
<!-- LivreurCreateComponent -->
<g id="node1" class="node">
<title>LivreurCreateComponent</title>
<polygon fill="#ffffb3" stroke="black" points="681.84,-84.8 522.16,-84.8 522.16,-48.8 681.84,-48.8 681.84,-84.8"/>
<text text-anchor="middle" x="602" y="-62.6" font-family="Times,serif" font-size="14.00">LivreurCreateComponent</text>
</g>
<!-- LivreursModule -->
<g id="node4" class="node">
<title>LivreursModule</title>
<polygon fill="#8dd3c7" stroke="black" points="397.48,-149.8 394.48,-153.8 373.48,-153.8 370.48,-149.8 290.52,-149.8 290.52,-113.8 397.48,-113.8 397.48,-149.8"/>
<text text-anchor="middle" x="344" y="-127.6" font-family="Times,serif" font-size="14.00">LivreursModule</text>
</g>
<!-- LivreurCreateComponent&#45;&gt;LivreursModule -->
<g id="edge1" class="edge">
<title>LivreurCreateComponent&#45;&gt;LivreursModule</title>
<path fill="none" stroke="black" d="M602,-84.91C602,-104.14 602,-131.8 602,-131.8 602,-131.8 407.77,-131.8 407.77,-131.8"/>
<polygon fill="black" stroke="black" points="407.77,-128.3 397.77,-131.8 407.77,-135.3 407.77,-128.3"/>
</g>
<!-- LivreurDetailComponent -->
<g id="node2" class="node">
<title>LivreurDetailComponent</title>
<polygon fill="#ffffb3" stroke="black" points="503.52,-84.8 346.48,-84.8 346.48,-48.8 503.52,-48.8 503.52,-84.8"/>
<text text-anchor="middle" x="425" y="-62.6" font-family="Times,serif" font-size="14.00">LivreurDetailComponent</text>
</g>
<!-- LivreurDetailComponent&#45;&gt;LivreursModule -->
<g id="edge2" class="edge">
<title>LivreurDetailComponent&#45;&gt;LivreursModule</title>
<path fill="none" stroke="black" d="M371.87,-84.91C371.87,-84.91 371.87,-103.79 371.87,-103.79"/>
<polygon fill="black" stroke="black" points="368.37,-103.79 371.87,-113.79 375.37,-103.79 368.37,-103.79"/>
</g>
<!-- LivreursComponent -->
<g id="node3" class="node">
<title>LivreursComponent</title>
<polygon fill="#ffffb3" stroke="black" points="328.26,-84.8 199.74,-84.8 199.74,-48.8 328.26,-48.8 328.26,-84.8"/>
<text text-anchor="middle" x="264" y="-62.6" font-family="Times,serif" font-size="14.00">LivreursComponent</text>
</g>
<!-- LivreursComponent&#45;&gt;LivreursModule -->
<g id="edge3" class="edge">
<title>LivreursComponent&#45;&gt;LivreursModule</title>
<path fill="none" stroke="black" d="M309.44,-84.91C309.44,-84.91 309.44,-103.79 309.44,-103.79"/>
<polygon fill="black" stroke="black" points="305.94,-103.79 309.44,-113.79 312.94,-103.79 305.94,-103.79"/>
</g>
<!-- LivreursRoutingModule -->
<g id="node5" class="node">
<title>LivreursRoutingModule</title>
<polygon fill="#8dd3c7" stroke="black" points="176.1,-84.8 173.1,-88.8 152.1,-88.8 149.1,-84.8 23.9,-84.8 23.9,-48.8 176.1,-48.8 176.1,-84.8"/>
<text text-anchor="middle" x="100" y="-62.6" font-family="Times,serif" font-size="14.00">LivreursRoutingModule</text>
</g>
<!-- LivreursRoutingModule&#45;&gt;LivreursModule -->
<g id="edge4" class="edge">
<title>LivreursRoutingModule&#45;&gt;LivreursModule</title>
<path fill="none" stroke="black" d="M100,-84.91C100,-104.14 100,-131.8 100,-131.8 100,-131.8 280.45,-131.8 280.45,-131.8"/>
<polygon fill="black" stroke="black" points="280.45,-135.3 290.45,-131.8 280.45,-128.3 280.45,-135.3"/>
</g>
</g>
</svg>
