<?xml version="1.0" encoding="UTF-8" standalone="no"?>
<!DOCTYPE svg PUBLIC "-//W3C//DTD SVG 1.1//EN"
 "http://www.w3.org/Graphics/SVG/1.1/DTD/svg11.dtd">
<!-- Generated by graphviz version 5.0.0 (20220707.1540)
 -->
<!-- Title: dependencies Pages: 1 -->
<svg width="2846pt" height="321pt"
 viewBox="0.00 0.00 2846.00 320.80" xmlns="http://www.w3.org/2000/svg" xmlns:xlink="http://www.w3.org/1999/xlink">
<g id="graph0" class="graph" transform="scale(1 1) rotate(0) translate(4 316.8)">
<title>dependencies</title>
<polygon fill="white" stroke="transparent" points="-4,4 -4,-316.8 2842,-316.8 2842,4 -4,4"/>
<text text-anchor="middle" x="1419" y="-8.2" font-family="sans-serif" font-size="14.00">dependencies</text>
<g id="clust1" class="cluster">
<title>cluster_AdminModule</title>
<polygon fill="none" stroke="black" stroke-dasharray="1,5" points="8,-32.8 8,-160.8 184,-160.8 184,-32.8 8,-32.8"/>
</g>
<g id="clust3" class="cluster">
<title>cluster_AdminModule_imports</title>
<polygon fill="none" stroke="black" points="16,-40.8 16,-92.8 176,-92.8 176,-40.8 16,-40.8"/>
</g>
<g id="clust13" class="cluster">
<title>cluster_AppModule</title>
<polygon fill="none" stroke="black" stroke-dasharray="1,5" points="192,-100.8 192,-304.8 2243,-304.8 2243,-100.8 192,-100.8"/>
</g>
<g id="clust14" class="cluster">
<title>cluster_AppModule_declarations</title>
<polygon fill="none" stroke="black" points="200,-108.8 200,-160.8 1965,-160.8 1965,-108.8 200,-108.8"/>
</g>
<g id="clust27" class="cluster">
<title>cluster_AppModule_imports</title>
<polygon fill="none" stroke="black" points="1973,-108.8 1973,-160.8 2235,-160.8 2235,-108.8 1973,-108.8"/>
</g>
<g id="clust29" class="cluster">
<title>cluster_AppModule_bootstrap</title>
<polygon fill="none" stroke="black" points="1076,-244.8 1076,-296.8 1200,-296.8 1200,-244.8 1076,-244.8"/>
</g>
<g id="clust37" class="cluster">
<title>cluster_AuthModule</title>
<polygon fill="none" stroke="black" stroke-dasharray="1,5" points="2318,-32.8 2318,-160.8 2762,-160.8 2762,-32.8 2318,-32.8"/>
</g>
<g id="clust38" class="cluster">
<title>cluster_AuthModule_declarations</title>
<polygon fill="none" stroke="black" points="2482,-40.8 2482,-92.8 2754,-92.8 2754,-40.8 2482,-40.8"/>
</g>
<g id="clust41" class="cluster">
<title>cluster_AuthModule_imports</title>
<polygon fill="none" stroke="black" points="2326,-40.8 2326,-92.8 2474,-92.8 2474,-40.8 2326,-40.8"/>
</g>
<g id="clust51" class="cluster">
<title>cluster_LayoutModule</title>
<polygon fill="none" stroke="black" stroke-dasharray="1,5" points="2251,-168.8 2251,-236.8 2830,-236.8 2830,-168.8 2251,-168.8"/>
</g>
<g id="clust52" class="cluster">
<title>cluster_LayoutModule_declarations</title>
<polygon fill="none" stroke="black" points="2548,-176.8 2548,-228.8 2822,-228.8 2822,-176.8 2548,-176.8"/>
</g>
<g id="clust56" class="cluster">
<title>cluster_LayoutModule_exports</title>
<polygon fill="none" stroke="black" points="2259,-176.8 2259,-228.8 2540,-228.8 2540,-176.8 2259,-176.8"/>
</g>
<!-- AdminRoutingModule -->
<g id="node1" class="node">
<title>AdminRoutingModule</title>
<polygon fill="#8dd3c7" stroke="black" points="167.56,-84.8 164.56,-88.8 143.56,-88.8 140.56,-84.8 24.44,-84.8 24.44,-48.8 167.56,-48.8 167.56,-84.8"/>
<text text-anchor="middle" x="96" y="-62.6" font-family="Times,serif" font-size="14.00">AdminRoutingModule</text>
</g>
<!-- AdminModule -->
<g id="node2" class="node">
<title>AdminModule</title>
<polygon fill="#8dd3c7" stroke="black" points="160.44,-152.8 157.44,-156.8 136.44,-156.8 133.44,-152.8 61.56,-152.8 61.56,-116.8 160.44,-116.8 160.44,-152.8"/>
<text text-anchor="middle" x="111" y="-130.6" font-family="Times,serif" font-size="14.00">AdminModule</text>
</g>
<!-- AdminRoutingModule&#45;&gt;AdminModule -->
<g id="edge1" class="edge">
<title>AdminRoutingModule&#45;&gt;AdminModule</title>
<path fill="none" stroke="black" d="M111,-85.02C111,-85.02 111,-106.53 111,-106.53"/>
<polygon fill="black" stroke="black" points="107.5,-106.53 111,-116.53 114.5,-106.53 107.5,-106.53"/>
</g>
<!-- AppModule -->
<g id="node15" class="node">
<title>AppModule</title>
<polygon fill="#8dd3c7" stroke="black" points="1179.66,-220.8 1176.66,-224.8 1155.66,-224.8 1152.66,-220.8 1096.34,-220.8 1096.34,-184.8 1179.66,-184.8 1179.66,-220.8"/>
<text text-anchor="middle" x="1138" y="-198.6" font-family="Times,serif" font-size="14.00">AppModule</text>
</g>
<!-- AdminModule&#45;&gt;AppModule -->
<g id="edge14" class="edge">
<title>AdminModule&#45;&gt;AppModule</title>
<path fill="none" stroke="black" d="M111,-153C111,-177.16 111,-216.8 111,-216.8 111,-216.8 1086.15,-216.8 1086.15,-216.8"/>
<polygon fill="black" stroke="black" points="1086.15,-220.3 1096.15,-216.8 1086.15,-213.3 1086.15,-220.3"/>
</g>
<!-- AppComponent -->
<g id="node3" class="node">
<title>AppComponent</title>
<polygon fill="#ffffb3" stroke="black" points="1956.94,-152.8 1851.06,-152.8 1851.06,-116.8 1956.94,-116.8 1956.94,-152.8"/>
<text text-anchor="middle" x="1904" y="-130.6" font-family="Times,serif" font-size="14.00">AppComponent</text>
</g>
<!-- AppComponent&#45;&gt;AppModule -->
<g id="edge2" class="edge">
<title>AppComponent&#45;&gt;AppModule</title>
<path fill="none" stroke="black" d="M1904,-152.84C1904,-174.46 1904,-207.8 1904,-207.8 1904,-207.8 1189.73,-207.8 1189.73,-207.8"/>
<polygon fill="black" stroke="black" points="1189.73,-204.3 1179.73,-207.8 1189.73,-211.3 1189.73,-204.3"/>
</g>
<!-- CardComponent -->
<g id="node4" class="node">
<title>CardComponent</title>
<polygon fill="#ffffb3" stroke="black" points="1833.05,-152.8 1724.95,-152.8 1724.95,-116.8 1833.05,-116.8 1833.05,-152.8"/>
<text text-anchor="middle" x="1779" y="-130.6" font-family="Times,serif" font-size="14.00">CardComponent</text>
</g>
<!-- CardComponent&#45;&gt;AppModule -->
<g id="edge3" class="edge">
<title>CardComponent&#45;&gt;AppModule</title>
<path fill="none" stroke="black" d="M1779,-153.02C1779,-173.17 1779,-202.8 1779,-202.8 1779,-202.8 1190.06,-202.8 1190.06,-202.8"/>
<polygon fill="black" stroke="black" points="1190.06,-199.3 1180.06,-202.8 1190.06,-206.3 1190.06,-199.3"/>
</g>
<!-- CarouselComponent -->
<g id="node5" class="node">
<title>CarouselComponent</title>
<polygon fill="#ffffb3" stroke="black" points="1706.6,-152.8 1575.4,-152.8 1575.4,-116.8 1706.6,-116.8 1706.6,-152.8"/>
<text text-anchor="middle" x="1641" y="-130.6" font-family="Times,serif" font-size="14.00">CarouselComponent</text>
</g>
<!-- CarouselComponent&#45;&gt;AppModule -->
<g id="edge4" class="edge">
<title>CarouselComponent&#45;&gt;AppModule</title>
<path fill="none" stroke="black" d="M1641,-152.97C1641,-171.89 1641,-198.8 1641,-198.8 1641,-198.8 1190.02,-198.8 1190.02,-198.8"/>
<polygon fill="black" stroke="black" points="1190.02,-195.3 1180.02,-198.8 1190.02,-202.3 1190.02,-195.3"/>
</g>
<!-- CatalogueComponent -->
<g id="node6" class="node">
<title>CatalogueComponent</title>
<polygon fill="#ffffb3" stroke="black" points="1557.09,-152.8 1418.91,-152.8 1418.91,-116.8 1557.09,-116.8 1557.09,-152.8"/>
<text text-anchor="middle" x="1488" y="-130.6" font-family="Times,serif" font-size="14.00">CatalogueComponent</text>
</g>
<!-- CatalogueComponent&#45;&gt;AppModule -->
<g id="edge5" class="edge">
<title>CatalogueComponent&#45;&gt;AppModule</title>
<path fill="none" stroke="black" d="M1488,-152.82C1488,-170.17 1488,-193.8 1488,-193.8 1488,-193.8 1189.87,-193.8 1189.87,-193.8"/>
<polygon fill="black" stroke="black" points="1189.87,-190.3 1179.87,-193.8 1189.87,-197.3 1189.87,-190.3"/>
</g>
<!-- CatalogueDetailComponent -->
<g id="node7" class="node">
<title>CatalogueDetailComponent</title>
<polygon fill="#ffffb3" stroke="black" points="1401.3,-152.8 1228.7,-152.8 1228.7,-116.8 1401.3,-116.8 1401.3,-152.8"/>
<text text-anchor="middle" x="1315" y="-130.6" font-family="Times,serif" font-size="14.00">CatalogueDetailComponent</text>
</g>
<!-- CatalogueDetailComponent&#45;&gt;AppModule -->
<g id="edge6" class="edge">
<title>CatalogueDetailComponent&#45;&gt;AppModule</title>
<path fill="none" stroke="black" d="M1315,-152.81C1315,-168.85 1315,-189.8 1315,-189.8 1315,-189.8 1189.95,-189.8 1189.95,-189.8"/>
<polygon fill="black" stroke="black" points="1189.95,-186.3 1179.95,-189.8 1189.95,-193.3 1189.95,-186.3"/>
</g>
<!-- CommandeComponent -->
<g id="node8" class="node">
<title>CommandeComponent</title>
<polygon fill="#ffffb3" stroke="black" points="1210.88,-152.8 1065.12,-152.8 1065.12,-116.8 1210.88,-116.8 1210.88,-152.8"/>
<text text-anchor="middle" x="1138" y="-130.6" font-family="Times,serif" font-size="14.00">CommandeComponent</text>
</g>
<!-- CommandeComponent&#45;&gt;AppModule -->
<g id="edge7" class="edge">
<title>CommandeComponent&#45;&gt;AppModule</title>
<path fill="none" stroke="black" d="M1138,-153.02C1138,-153.02 1138,-174.53 1138,-174.53"/>
<polygon fill="black" stroke="black" points="1134.5,-174.53 1138,-184.53 1141.5,-174.53 1134.5,-174.53"/>
</g>
<!-- CommandeDetailComponent -->
<g id="node9" class="node">
<title>CommandeDetailComponent</title>
<polygon fill="#ffffb3" stroke="black" points="1047.08,-152.8 866.92,-152.8 866.92,-116.8 1047.08,-116.8 1047.08,-152.8"/>
<text text-anchor="middle" x="957" y="-130.6" font-family="Times,serif" font-size="14.00">CommandeDetailComponent</text>
</g>
<!-- CommandeDetailComponent&#45;&gt;AppModule -->
<g id="edge8" class="edge">
<title>CommandeDetailComponent&#45;&gt;AppModule</title>
<path fill="none" stroke="black" d="M957,-152.81C957,-168.85 957,-189.8 957,-189.8 957,-189.8 1086.02,-189.8 1086.02,-189.8"/>
<polygon fill="black" stroke="black" points="1086.02,-193.3 1096.02,-189.8 1086.02,-186.3 1086.02,-193.3"/>
</g>
<!-- FormatEtat -->
<g id="node10" class="node">
<title>FormatEtat</title>
<polygon fill="#ffffb3" stroke="black" points="848.49,-152.8 769.51,-152.8 769.51,-116.8 848.49,-116.8 848.49,-152.8"/>
<text text-anchor="middle" x="809" y="-130.6" font-family="Times,serif" font-size="14.00">FormatEtat</text>
</g>
<!-- FormatEtat&#45;&gt;AppModule -->
<g id="edge9" class="edge">
<title>FormatEtat&#45;&gt;AppModule</title>
<path fill="none" stroke="black" d="M809,-152.82C809,-170.17 809,-193.8 809,-193.8 809,-193.8 1086.33,-193.8 1086.33,-193.8"/>
<polygon fill="black" stroke="black" points="1086.33,-197.3 1096.33,-193.8 1086.33,-190.3 1086.33,-197.3"/>
</g>
<!-- HomeComponent -->
<g id="node11" class="node">
<title>HomeComponent</title>
<polygon fill="#ffffb3" stroke="black" points="751.55,-152.8 636.45,-152.8 636.45,-116.8 751.55,-116.8 751.55,-152.8"/>
<text text-anchor="middle" x="694" y="-130.6" font-family="Times,serif" font-size="14.00">HomeComponent</text>
</g>
<!-- HomeComponent&#45;&gt;AppModule -->
<g id="edge10" class="edge">
<title>HomeComponent&#45;&gt;AppModule</title>
<path fill="none" stroke="black" d="M694,-152.97C694,-171.89 694,-198.8 694,-198.8 694,-198.8 1086.23,-198.8 1086.23,-198.8"/>
<polygon fill="black" stroke="black" points="1086.23,-202.3 1096.23,-198.8 1086.23,-195.3 1086.23,-202.3"/>
</g>
<!-- NotFoundComponent -->
<g id="node12" class="node">
<title>NotFoundComponent</title>
<polygon fill="#ffffb3" stroke="black" points="618.12,-152.8 479.88,-152.8 479.88,-116.8 618.12,-116.8 618.12,-152.8"/>
<text text-anchor="middle" x="549" y="-130.6" font-family="Times,serif" font-size="14.00">NotFoundComponent</text>
</g>
<!-- NotFoundComponent&#45;&gt;AppModule -->
<g id="edge11" class="edge">
<title>NotFoundComponent&#45;&gt;AppModule</title>
<path fill="none" stroke="black" d="M549,-153.02C549,-173.17 549,-202.8 549,-202.8 549,-202.8 1086.11,-202.8 1086.11,-202.8"/>
<polygon fill="black" stroke="black" points="1086.11,-206.3 1096.11,-202.8 1086.11,-199.3 1086.11,-206.3"/>
</g>
<!-- PanierComponent -->
<g id="node13" class="node">
<title>PanierComponent</title>
<polygon fill="#ffffb3" stroke="black" points="461.6,-152.8 344.4,-152.8 344.4,-116.8 461.6,-116.8 461.6,-152.8"/>
<text text-anchor="middle" x="403" y="-130.6" font-family="Times,serif" font-size="14.00">PanierComponent</text>
</g>
<!-- PanierComponent&#45;&gt;AppModule -->
<g id="edge12" class="edge">
<title>PanierComponent&#45;&gt;AppModule</title>
<path fill="none" stroke="black" d="M403,-152.84C403,-174.46 403,-207.8 403,-207.8 403,-207.8 1086.11,-207.8 1086.11,-207.8"/>
<polygon fill="black" stroke="black" points="1086.11,-211.3 1096.11,-207.8 1086.11,-204.3 1086.11,-211.3"/>
</g>
<!-- TailleBoissonPipe -->
<g id="node14" class="node">
<title>TailleBoissonPipe</title>
<polygon fill="#ffffb3" stroke="black" points="326.16,-152.8 207.84,-152.8 207.84,-116.8 326.16,-116.8 326.16,-152.8"/>
<text text-anchor="middle" x="267" y="-130.6" font-family="Times,serif" font-size="14.00">TailleBoissonPipe</text>
</g>
<!-- TailleBoissonPipe&#45;&gt;AppModule -->
<g id="edge13" class="edge">
<title>TailleBoissonPipe&#45;&gt;AppModule</title>
<path fill="none" stroke="black" d="M267,-153.05C267,-175.82 267,-211.8 267,-211.8 267,-211.8 1086.28,-211.8 1086.28,-211.8"/>
<polygon fill="black" stroke="black" points="1086.28,-215.3 1096.28,-211.8 1086.28,-208.3 1086.28,-215.3"/>
</g>
<!-- AppComponent  -->
<g id="node18" class="node">
<title>AppComponent </title>
<polygon fill="#80b1d3" stroke="black" points="1192.44,-288.8 1083.56,-288.8 1083.56,-252.8 1192.44,-252.8 1192.44,-288.8"/>
<text text-anchor="middle" x="1138" y="-266.6" font-family="Times,serif" font-size="14.00">AppComponent </text>
</g>
<!-- AppModule&#45;&gt;AppComponent  -->
<g id="edge17" class="edge">
<title>AppModule&#45;&gt;AppComponent </title>
<path fill="none" stroke="black" stroke-dasharray="1,5" d="M1138,-221.02C1138,-221.02 1138,-242.53 1138,-242.53"/>
<polygon fill="black" stroke="black" points="1134.5,-242.53 1138,-252.53 1141.5,-242.53 1134.5,-242.53"/>
</g>
<!-- AppRoutingModule -->
<g id="node16" class="node">
<title>AppRoutingModule</title>
<polygon fill="#8dd3c7" stroke="black" points="2109.28,-152.8 2106.28,-156.8 2085.28,-156.8 2082.28,-152.8 1980.72,-152.8 1980.72,-116.8 2109.28,-116.8 2109.28,-152.8"/>
<text text-anchor="middle" x="2045" y="-130.6" font-family="Times,serif" font-size="14.00">AppRoutingModule</text>
</g>
<!-- AppRoutingModule&#45;&gt;AppModule -->
<g id="edge15" class="edge">
<title>AppRoutingModule&#45;&gt;AppModule</title>
<path fill="none" stroke="black" d="M2045,-153.05C2045,-175.82 2045,-211.8 2045,-211.8 2045,-211.8 1189.93,-211.8 1189.93,-211.8"/>
<polygon fill="black" stroke="black" points="1189.93,-208.3 1179.93,-211.8 1189.93,-215.3 1189.93,-208.3"/>
</g>
<!-- LayoutModule -->
<g id="node17" class="node">
<title>LayoutModule</title>
<polygon fill="#8dd3c7" stroke="black" points="2226.71,-152.8 2223.71,-156.8 2202.71,-156.8 2199.71,-152.8 2127.29,-152.8 2127.29,-116.8 2226.71,-116.8 2226.71,-152.8"/>
<text text-anchor="middle" x="2177" y="-130.6" font-family="Times,serif" font-size="14.00">LayoutModule</text>
</g>
<!-- LayoutModule&#45;&gt;AppModule -->
<g id="edge16" class="edge">
<title>LayoutModule&#45;&gt;AppModule</title>
<path fill="none" stroke="black" d="M2152.2,-153C2152.2,-177.16 2152.2,-216.8 2152.2,-216.8 2152.2,-216.8 1189.97,-216.8 1189.97,-216.8"/>
<polygon fill="black" stroke="black" points="1189.97,-213.3 1179.97,-216.8 1189.97,-220.3 1189.97,-213.3"/>
</g>
<!-- FooterComponent  -->
<g id="node25" class="node">
<title>FooterComponent </title>
<polygon fill="#fb8072" stroke="black" points="2531.88,-220.8 2410.12,-220.8 2410.12,-184.8 2531.88,-184.8 2531.88,-220.8"/>
<text text-anchor="middle" x="2471" y="-198.6" font-family="Times,serif" font-size="14.00">FooterComponent </text>
</g>
<!-- LayoutModule&#45;&gt;FooterComponent  -->
<g id="edge23" class="edge">
<title>LayoutModule&#45;&gt;FooterComponent </title>
<path fill="none" stroke="black" stroke-dasharray="5,2" d="M2226.78,-134.8C2300.22,-134.8 2428.98,-134.8 2428.98,-134.8 2428.98,-134.8 2428.98,-174.58 2428.98,-174.58"/>
<polygon fill="black" stroke="black" points="2425.48,-174.58 2428.98,-184.58 2432.48,-174.58 2425.48,-174.58"/>
</g>
<!-- HeaderComponent  -->
<g id="node26" class="node">
<title>HeaderComponent </title>
<polygon fill="#fb8072" stroke="black" points="2392.75,-220.8 2267.25,-220.8 2267.25,-184.8 2392.75,-184.8 2392.75,-220.8"/>
<text text-anchor="middle" x="2330" y="-198.6" font-family="Times,serif" font-size="14.00">HeaderComponent </text>
</g>
<!-- LayoutModule&#45;&gt;HeaderComponent  -->
<g id="edge24" class="edge">
<title>LayoutModule&#45;&gt;HeaderComponent </title>
<path fill="none" stroke="black" stroke-dasharray="5,2" d="M2226.88,-143.8C2261.17,-143.8 2300.52,-143.8 2300.52,-143.8 2300.52,-143.8 2300.52,-174.78 2300.52,-174.78"/>
<polygon fill="black" stroke="black" points="2297.02,-174.78 2300.52,-184.78 2304.02,-174.78 2297.02,-174.78"/>
</g>
<!-- LoginComponent -->
<g id="node19" class="node">
<title>LoginComponent</title>
<polygon fill="#ffffb3" stroke="black" points="2746.27,-84.8 2631.73,-84.8 2631.73,-48.8 2746.27,-48.8 2746.27,-84.8"/>
<text text-anchor="middle" x="2689" y="-62.6" font-family="Times,serif" font-size="14.00">LoginComponent</text>
</g>
<!-- AuthModule -->
<g id="node21" class="node">
<title>AuthModule</title>
<polygon fill="#8dd3c7" stroke="black" points="2595.55,-152.8 2592.55,-156.8 2571.55,-156.8 2568.55,-152.8 2508.45,-152.8 2508.45,-116.8 2595.55,-116.8 2595.55,-152.8"/>
<text text-anchor="middle" x="2552" y="-130.6" font-family="Times,serif" font-size="14.00">AuthModule</text>
</g>
<!-- LoginComponent&#45;&gt;AuthModule -->
<g id="edge18" class="edge">
<title>LoginComponent&#45;&gt;AuthModule</title>
<path fill="none" stroke="black" d="M2654.74,-85.02C2654.74,-105.17 2654.74,-134.8 2654.74,-134.8 2654.74,-134.8 2605.57,-134.8 2605.57,-134.8"/>
<polygon fill="black" stroke="black" points="2605.57,-131.3 2595.57,-134.8 2605.57,-138.3 2605.57,-131.3"/>
</g>
<!-- SignUpComponent -->
<g id="node20" class="node">
<title>SignUpComponent</title>
<polygon fill="#ffffb3" stroke="black" points="2614.12,-84.8 2489.88,-84.8 2489.88,-48.8 2614.12,-48.8 2614.12,-84.8"/>
<text text-anchor="middle" x="2552" y="-62.6" font-family="Times,serif" font-size="14.00">SignUpComponent</text>
</g>
<!-- SignUpComponent&#45;&gt;AuthModule -->
<g id="edge19" class="edge">
<title>SignUpComponent&#45;&gt;AuthModule</title>
<path fill="none" stroke="black" d="M2552,-85.02C2552,-85.02 2552,-106.53 2552,-106.53"/>
<polygon fill="black" stroke="black" points="2548.5,-106.53 2552,-116.53 2555.5,-106.53 2548.5,-106.53"/>
</g>
<!-- AuthRoutingModule -->
<g id="node22" class="node">
<title>AuthRoutingModule</title>
<polygon fill="#8dd3c7" stroke="black" points="2466.17,-84.8 2463.17,-88.8 2442.17,-88.8 2439.17,-84.8 2333.83,-84.8 2333.83,-48.8 2466.17,-48.8 2466.17,-84.8"/>
<text text-anchor="middle" x="2400" y="-62.6" font-family="Times,serif" font-size="14.00">AuthRoutingModule</text>
</g>
<!-- AuthRoutingModule&#45;&gt;AuthModule -->
<g id="edge20" class="edge">
<title>AuthRoutingModule&#45;&gt;AuthModule</title>
<path fill="none" stroke="black" d="M2447.66,-84.82C2447.66,-102.17 2447.66,-125.8 2447.66,-125.8 2447.66,-125.8 2498.35,-125.8 2498.35,-125.8"/>
<polygon fill="black" stroke="black" points="2498.35,-129.3 2508.35,-125.8 2498.35,-122.3 2498.35,-129.3"/>
</g>
<!-- FooterComponent -->
<g id="node23" class="node">
<title>FooterComponent</title>
<polygon fill="#ffffb3" stroke="black" points="2813.88,-220.8 2696.12,-220.8 2696.12,-184.8 2813.88,-184.8 2813.88,-220.8"/>
<text text-anchor="middle" x="2755" y="-198.6" font-family="Times,serif" font-size="14.00">FooterComponent</text>
</g>
<!-- FooterComponent&#45;&gt;LayoutModule -->
<g id="edge21" class="edge">
<title>FooterComponent&#45;&gt;LayoutModule</title>
<path fill="none" stroke="black" d="M2721.22,-184.67C2721.22,-174.49 2721.22,-163.8 2721.22,-163.8 2721.22,-163.8 2201.8,-163.8 2201.8,-163.8 2201.8,-163.8 2201.8,-162.72 2201.8,-162.72"/>
<polygon fill="black" stroke="black" points="2205.3,-163 2201.8,-153 2198.3,-163 2205.3,-163"/>
</g>
<!-- HeaderComponent -->
<g id="node24" class="node">
<title>HeaderComponent</title>
<polygon fill="#ffffb3" stroke="black" points="2677.75,-220.8 2556.25,-220.8 2556.25,-184.8 2677.75,-184.8 2677.75,-220.8"/>
<text text-anchor="middle" x="2617" y="-198.6" font-family="Times,serif" font-size="14.00">HeaderComponent</text>
</g>
<!-- HeaderComponent&#45;&gt;LayoutModule -->
<g id="edge22" class="edge">
<title>HeaderComponent&#45;&gt;LayoutModule</title>
<path fill="none" stroke="black" d="M2575.95,-184.59C2575.95,-179.25 2575.95,-174.8 2575.95,-174.8 2575.95,-174.8 2177,-174.8 2177,-174.8 2177,-174.8 2177,-162.93 2177,-162.93"/>
<polygon fill="black" stroke="black" points="2180.5,-162.93 2177,-152.93 2173.5,-162.93 2180.5,-162.93"/>
</g>
</g>
</svg>
